<svg width="530" height="801" viewBox="0 0 530 801" fill="none" xmlns="http://www.w3.org/2000/svg">
<path d="M169.043 416.243C172.314 415.096 175.484 413.446 178.631 412.004C183.684 409.687 188.73 407.359 193.77 405.018C197.741 403.181 201.684 401.335 205.65 399.513C206.06 399.324 206.479 399.148 206.891 398.949C207.162 398.813 207.775 398.55 206.477 399.118C204.863 399.823 206.541 399.118 206.958 398.952C207.797 398.614 208.641 398.272 209.457 397.88C213.156 396.164 216.229 393.339 218.248 389.797C219.867 386.412 220.886 382.773 221.261 379.04C222.125 373.454 223.085 367.897 223.594 362.258C223.582 360.682 222.951 359.174 221.836 358.059C220.722 356.945 219.214 356.314 217.637 356.302C216.068 356.334 214.571 356.972 213.461 358.082C212.351 359.192 211.713 360.689 211.681 362.258C211.286 366.646 210.549 370.96 209.862 375.308C209.567 378.107 208.985 380.868 208.125 383.547C207.804 384.391 208.556 382.775 208.092 383.547C207.914 383.845 207.755 384.16 207.576 384.461C207.497 384.595 206.832 385.481 207.263 384.957C207.653 384.461 207.05 385.165 207.015 385.205C205.994 386.234 204.781 387.051 203.444 387.61C202.24 388.171 200.962 388.628 199.761 389.184C191.323 393.058 182.924 396.999 174.491 400.873C172.304 401.879 170.114 402.877 167.922 403.868C167.227 404.181 166.527 404.489 165.832 404.797C164.298 405.479 167.152 404.32 165.896 404.762C164.394 405.214 163.124 406.228 162.349 407.592C161.574 408.956 161.354 410.566 161.734 412.088C162.167 413.604 163.177 414.889 164.548 415.667C165.919 416.445 167.54 416.654 169.063 416.248L169.043 416.243Z" fill="#211715"/>
<path d="M309.956 361.625C310.433 366.877 311.197 372.084 312.053 377.283C312.381 380.091 312.898 382.874 313.602 385.612C314.554 388.941 316.383 391.953 318.898 394.333C320.332 395.639 321.931 396.75 323.656 397.637C324.76 398.195 325.912 398.677 327.066 399.126C329.438 400.044 325.775 398.466 326.656 398.925C334.114 402.809 341.929 406.122 349.529 409.726C353.016 411.373 356.478 413.098 360.034 414.59C361.557 415.001 363.181 414.794 364.553 414.016C365.925 413.237 366.935 411.949 367.363 410.43C367.742 408.908 367.522 407.298 366.747 405.934C365.972 404.57 364.703 403.556 363.201 403.102C366.229 404.37 362.874 402.896 362.156 402.561C360.528 401.796 358.901 401.028 357.275 400.257C352.867 398.176 348.461 396.091 344.056 394.003C340.649 392.39 337.246 390.777 333.829 389.176C332.69 388.642 331.218 388.079 330.297 387.657C329.591 387.328 328.904 386.959 328.24 386.553C328.133 386.488 327.083 385.771 327.604 386.163C328.049 386.493 327.339 385.927 327.321 385.915C327.088 385.704 325.77 384.198 326.5 385.183C326.076 384.58 325.697 383.946 325.368 383.287C325.053 382.686 325.458 383.535 325.485 383.599C325.314 383.143 325.157 382.684 325.018 382.217C324.832 381.587 324.681 380.944 324.544 380.299C324.227 378.785 324.021 377.246 323.8 375.717C323.09 371.019 322.311 366.368 321.879 361.63C321.839 360.063 321.199 358.571 320.09 357.462C318.982 356.354 317.49 355.714 315.922 355.674C314.347 355.686 312.839 356.318 311.724 357.432C310.61 358.547 309.978 360.054 309.966 361.63L309.956 361.625Z" fill="#211715"/>
<path d="M353.693 326.83C398.996 319.755 435.372 313.007 473.64 286.59C491.903 273.98 510.122 248.569 510.122 227.88C510.122 204.571 503.141 181.88 482.924 162.36C462.926 143.227 439.261 128.343 413.354 118.606L409.646 108.5C403.876 92.1692 386.709 59.6077 359.736 37.2713C337.286 18.6949 294.782 4.56587 262.126 6.09467C229.463 4.5609 186.955 18.6924 164.494 37.2763C137.524 59.5878 120.357 92.1692 114.585 108.5L111.192 118.484C85.1629 128.226 61.3855 143.157 41.304 162.37C21.0846 181.88 13.2669 203.548 13.2669 226.863C13.2669 247.549 32.3273 273.982 50.5935 286.593C88.8557 313.007 125.234 319.755 170.537 326.83" fill="#FFDA71"/>
<path d="M199.049 154.823C199.793 154.642 200.52 154.47 201.262 154.304C218.928 150.368 241.55 149.162 265.417 148.596C289.285 149.154 311.907 150.36 329.572 154.304C342.578 157.007 354.85 162.473 365.559 170.332C369.581 173.299 372.967 177.042 375.516 181.341C378.066 185.64 379.727 190.406 380.403 195.358C381.395 203.501 378.784 210.897 375.144 218.561C375.925 219.027 376.676 219.542 377.392 220.105C380.086 218.719 383.091 218.049 386.118 218.159C388.985 218.066 391.823 218.752 394.33 220.145C396.837 221.538 398.919 223.585 400.354 226.068C405.191 234.457 404.985 249.914 401.739 259.476C399.441 266.249 395.673 276.601 386.6 284.046C384.601 285.71 382.28 286.941 379.782 287.662C377.284 288.383 374.663 288.578 372.086 288.235L370.699 288C369.328 292.622 367.658 297.15 365.7 301.555C362.01 311.57 341.627 346.695 315.816 360.392C315.96 362.211 316.119 364.033 316.394 365.852C311.227 369.706 271.833 397.719 268.726 399.922H260.35C257.691 398.036 228.458 377.251 216.843 368.877C217.181 366.678 217.434 364.494 217.622 362.266C204.891 356.716 193.571 347.345 182.822 334.482C171.523 320.827 163.137 305.004 158.18 287.987C155.436 288.569 152.596 288.517 149.875 287.835C147.154 287.154 144.624 285.862 142.478 284.056C133.397 276.626 129.63 266.264 127.339 259.486C124.098 249.914 123.884 234.457 128.721 226.068C130.156 223.585 132.239 221.537 134.746 220.144C137.254 218.751 140.092 218.065 142.959 218.159C146.122 218.046 149.258 218.779 152.043 220.283L158.205 223.681L157.031 221.321C152.723 212.654 149.315 204.474 150.43 195.358C151.104 190.406 152.765 185.64 155.314 181.341C157.863 177.042 161.249 173.298 165.271 170.332C175.351 162.907 186.847 157.628 199.049 154.823Z" fill="white"/>
<path d="M316.868 365.472C321.809 370.999 327.9 379.097 332.734 384.696C335.578 387.992 337.673 394.043 336.055 398.406C334.196 402.116 328.113 427.423 320.419 444.233C304.93 436.894 277.37 409.644 268.716 399.907C271.967 397.612 314.768 367.172 316.868 365.472Z" fill="white"/>
<path d="M212.202 365.472C207.261 370.999 201.171 379.097 196.336 384.696C193.492 387.992 191.397 394.043 193.018 398.406C194.874 402.116 200.838 427.423 208.534 444.233C224.021 436.894 251.693 409.644 260.347 399.907C257.123 397.612 214.309 367.172 212.202 365.472Z" fill="white"/>
<path d="M268.723 399.907C277.377 409.644 304.938 436.887 320.427 444.233C328.121 427.423 334.196 402.116 336.062 398.406L339.17 392.201L347.313 396.043C377.618 408.512 409.398 421.896 426.093 430.397C433.217 434.58 439.887 439.493 445.995 445.057C461.913 459.898 469.143 480.629 476.578 501.699C481.949 519.589 486.398 537.743 489.908 556.088C497.386 592.355 501.836 616.233 510.971 655.609C514.808 677.219 511.153 699.49 500.61 718.74C490.025 738.438 454.592 762.685 433.553 770.796H96.7752C75.7368 762.685 40.3038 738.438 29.7189 718.74C19.1782 699.49 15.5253 677.218 19.3647 655.609C28.4929 616.265 32.712 593.589 40.1798 557.372C43.7295 538.589 48.2618 520.005 53.7578 501.697C61.2033 480.626 68.4229 459.896 84.3413 445.054C90.4491 439.491 97.1189 434.578 104.243 430.394C120.938 421.894 152.718 408.509 183.023 396.041L190.164 392.67C191.814 395.974 193.033 398.406 193.033 398.406C194.889 402.116 200.853 427.423 208.549 444.233C224.036 436.894 251.708 409.644 260.362 399.907H268.723Z" fill="white"/>
<path d="M280.127 148.325C250.973 148.784 222.524 149.566 201.26 154.304C188.255 157.007 175.982 162.473 165.273 170.332C161.252 173.298 157.866 177.042 155.316 181.341C152.767 185.64 151.106 190.406 150.432 195.358C149.417 203.667 152.169 211.197 155.915 219.03C201.662 203.682 260.263 175.28 296.755 148.072C291.213 148.162 285.664 148.238 280.127 148.325Z" fill="#85807F"/>
<path d="M326.833 153.723C327.759 153.91 328.669 154.104 329.562 154.304C342.568 157.007 354.84 162.473 365.549 170.332C369.571 173.299 372.957 177.042 375.506 181.341C378.056 185.64 379.718 190.406 380.393 195.358C381.385 203.501 378.775 210.897 375.134 218.561C359.64 209.13 343.287 195.76 331.967 178.107C326.852 169.728 322.195 161.077 318.015 152.194C321.067 152.656 324.008 153.152 326.833 153.723Z" fill="#85807F"/>
<path d="M120.328 110.083C121.655 106.325 123.205 102.649 124.971 99.0761C127.294 94.2266 129.845 89.4863 132.583 84.8553C138.98 73.9061 146.54 63.6796 155.133 54.3537C163.518 45.1377 173.349 37.3494 184.24 31.2951C195.556 25.206 207.56 20.4903 219.995 17.248C232.283 13.8073 244.976 12.0212 257.736 11.9369C270.141 11.6926 282.539 12.7121 294.738 14.9796C318.978 20.0524 343.334 29.7812 361.63 46.8635C372.358 57.0178 381.697 68.5456 389.404 81.1474C392.685 86.4337 395.725 91.8714 398.47 97.453C400.55 101.542 402.365 105.761 403.903 110.083C404.357 111.584 405.37 112.854 406.734 113.628C408.098 114.402 409.708 114.622 411.229 114.242C412.745 113.811 414.031 112.802 414.809 111.431C415.587 110.06 415.795 108.439 415.389 106.916C406.978 84.2592 394.102 63.5229 377.524 45.9378C368.428 35.9861 357.785 27.5694 346.005 21.0129C333.789 14.4203 320.833 9.30333 307.41 5.76956C294.094 2.05009 280.342 0.118017 266.517 0.0241406C253.044 -0.186162 239.585 0.978044 226.349 3.49869C200.066 9.00089 173.982 19.9606 154.177 38.4378C133.926 57.4108 118.399 80.8632 108.842 106.916C108.437 108.439 108.645 110.06 109.423 111.43C110.201 112.8 111.486 113.81 113.001 114.242C114.523 114.631 116.137 114.415 117.503 113.64C118.869 112.864 119.882 111.589 120.328 110.083Z" fill="#211715"/>
<path d="M172.121 321.087C139.594 316 106.616 310.378 76.9554 295.368C62.4045 288.005 48.5981 279.293 37.8543 266.872C28.8825 256.5 19.8958 242.568 19.2605 228.441C18.6831 213.4 22.4806 198.514 30.1929 185.587C38.6311 171.441 51.4944 160.012 64.6902 150.346C90.2282 131.645 119.787 119.861 150.487 112.776C182.726 105.33 215.868 102.848 248.861 101.766C265.489 101.225 282.103 101.833 298.713 102.821C315.138 103.794 331.558 105.281 347.821 107.812C378.986 112.662 409.916 121.112 437.663 136.405C465.241 151.604 493.69 173.585 501.61 205.544C503.397 212.852 504.259 220.357 504.173 227.88C503.922 234.87 502.122 241.717 498.902 247.926C492.06 261.92 481.696 273.894 468.827 282.671C455.028 292.026 440.079 299.561 424.351 305.09C408.873 310.284 393.012 314.255 376.913 316.968C368.666 318.457 360.392 319.784 352.112 321.08C350.595 321.509 349.308 322.518 348.529 323.889C347.751 325.261 347.544 326.883 347.953 328.406C348.405 329.909 349.418 331.179 350.783 331.954C352.147 332.728 353.757 332.948 355.279 332.566C389.618 327.198 423.936 320.901 455.083 304.73C470.438 296.758 485.073 287.109 496.172 273.675C506.633 261.017 515.821 245.154 516.081 228.282C516.43 211.525 512.385 194.968 504.35 180.259C495.542 164.487 481.797 152.242 467.515 141.51C440.825 121.455 409.293 108.75 376.928 101.287C343.012 93.4622 308.06 90.8637 273.349 89.7891C255.897 89.253 238.413 90.0373 220.995 91.1913C203.578 92.3454 186.133 94.1521 168.877 97.0286C135.869 102.538 103.213 112.448 74.342 129.689C45.4239 146.948 16.7464 171.734 9.46227 206.092C7.63501 213.937 6.95783 222.005 7.452 230.044C8.31634 238.114 10.6798 245.952 14.421 253.155C21.9769 268.309 33.1239 281.386 46.8906 291.246C75.3769 311.46 108.633 321.934 142.654 328.19C151.395 329.796 160.173 331.201 168.961 332.573C170.483 332.944 172.089 332.721 173.451 331.948C174.813 331.174 175.829 329.91 176.29 328.414C176.697 326.891 176.489 325.268 175.71 323.898C174.932 322.527 173.645 321.517 172.128 321.087H172.121Z" fill="#211715"/>
<path d="M159.513 218.467C155.905 215.237 151.42 213.149 146.625 212.467C141.831 211.785 136.941 212.539 132.575 214.635C129.457 216.299 126.75 218.64 124.653 221.486C122.557 224.331 121.123 227.61 120.457 231.082C118.694 239.246 118.614 247.685 120.221 255.881C121.828 264.078 125.09 271.861 129.806 278.755C136.574 288.647 146.146 295.646 158.595 293.973C160.113 293.546 161.401 292.536 162.18 291.165C162.959 289.793 163.165 288.17 162.754 286.647C162.299 285.147 161.285 283.879 159.922 283.104C158.558 282.33 156.95 282.11 155.428 282.488C146.975 283.624 140.45 274.136 137.115 267.738C133.789 261.573 131.744 254.799 131.101 247.824C130.625 241.225 130.751 233.127 134.824 227.6C134.079 228.592 136.678 225.947 136.415 226.13C137.695 225.25 139.147 224.65 140.676 224.371C142.489 223.944 144.378 223.949 146.188 224.387C147.999 224.825 149.682 225.682 151.1 226.89C156.783 232.01 165.246 223.611 159.523 218.467H159.513Z" fill="#211715"/>
<path d="M205.603 233.759C203.796 239.639 204.975 253.16 216.111 254.311C230.831 254.222 231.612 237.874 226.659 230.188C222.601 223.884 210.673 221.276 205.603 233.759Z" fill="#211715"/>
<path d="M390.893 282.033C395.518 289.091 398.428 297.133 399.389 305.516C399.879 309.639 400.084 313.79 400.002 317.94C399.848 327.803 397.363 337.894 396.867 347.757C396.408 357.62 402.823 372.101 412.185 375.273C415.195 380.125 398.987 396.009 369.048 391.35L334.697 387.627C334.161 386.576 333.505 385.59 332.742 384.689C327.907 379.09 321.822 370.992 316.875 365.465C316.875 365.465 316.875 363.018 316.875 359.801C342.17 345.717 362.045 311.418 365.693 301.543C367.651 297.138 369.319 292.61 370.686 287.987L372.079 288.223C374.656 288.566 377.276 288.37 379.774 287.649C382.272 286.928 384.594 285.697 386.592 284.034C387.818 283.033 388.978 281.956 390.067 280.807C390.342 281.214 390.615 281.624 390.893 282.033Z" fill="#85807F"/>
<path d="M323.475 233.76C325.284 239.639 324.105 253.16 312.969 254.311C298.249 254.222 297.465 237.874 302.419 230.186C306.477 223.884 318.404 221.276 323.475 233.76Z" fill="#211715"/>
<path d="M367.008 278.393C365.2 286.117 362.708 293.665 359.563 300.947C359.563 300.947 360.059 299.868 359.54 300.975C359.31 301.459 359.094 301.948 358.863 302.432C358.367 303.484 357.835 304.521 357.294 305.554C355.915 308.184 354.433 310.765 352.887 313.297C345.182 326.397 335.334 338.112 323.753 347.953C317.476 353.343 310.042 357.213 302.027 359.263C294.561 361 297.721 372.481 305.194 370.751C321.916 366.877 335.832 354.659 346.732 341.947C356.047 331.446 363.823 319.674 369.828 306.986C370.185 306.189 370.525 305.382 370.86 304.573C371.014 304.196 371.721 302.528 371.049 304.092C371.942 302.02 372.833 299.947 373.627 297.833C375.67 292.544 377.295 287.102 378.487 281.559C378.868 280.038 378.648 278.428 377.874 277.063C377.099 275.699 375.829 274.686 374.327 274.233C372.804 273.828 371.184 274.037 369.813 274.815C368.443 275.593 367.433 276.877 367.001 278.393H367.008Z" fill="#211715"/>
<path d="M244.061 315.277C250.739 318.733 258.178 320.457 265.695 320.291C273.516 320.617 281.223 318.333 287.602 313.798C288.719 312.681 289.347 311.166 289.347 309.587C289.347 308.007 288.719 306.492 287.602 305.375C286.463 304.301 284.956 303.703 283.391 303.703C281.825 303.703 280.318 304.301 279.179 305.375C281.006 303.95 279.675 304.98 279.199 305.283C278.77 305.559 278.325 305.814 277.874 306.05C277.64 306.174 277.4 306.283 277.164 306.405C276.598 306.695 276.38 306.405 277.479 306.293C276.852 306.46 276.241 306.682 275.652 306.956C273.98 307.481 272.269 307.872 270.535 308.125C271.436 307.986 270.599 308.107 270.15 308.152C269.654 308.202 269.145 308.244 268.644 308.276C267.433 308.356 266.219 308.385 265.005 308.378C263.918 308.378 262.833 308.339 261.749 308.261C261.253 308.23 260.757 308.189 260.26 308.137C260.124 308.137 258.314 307.832 259.642 308.073C258.03 307.809 256.434 307.455 254.862 307.013C254.192 306.812 253.539 306.571 252.877 306.345C251.388 305.849 253.85 306.842 252.502 306.204C251.683 305.817 250.876 305.412 250.075 304.99C248.711 304.193 247.086 303.97 245.557 304.371C244.029 304.771 242.722 305.763 241.924 307.127C241.127 308.491 240.904 310.116 241.305 311.645C241.706 313.173 242.697 314.48 244.061 315.277Z" fill="#211715"/>
<path d="M262.491 264.542C263.478 268.107 264.269 271.723 264.859 275.375L264.646 273.791C264.715 274.285 264.729 274.784 264.685 275.28L264.899 273.697C264.866 273.926 264.811 274.151 264.735 274.37L265.335 272.947C265.267 273.099 265.184 273.244 265.087 273.379L266.018 272.173C265.914 272.303 265.796 272.42 265.666 272.523L266.869 271.592C266.594 271.763 266.308 271.915 266.013 272.047L267.435 271.446C266.971 271.643 266.485 271.785 265.988 271.868L267.572 271.654C267.121 271.708 266.667 271.708 266.217 271.654L267.8 271.868C267.286 271.796 266.785 271.672 266.274 271.602C265.506 271.356 264.686 271.319 263.899 271.496C263.11 271.532 262.346 271.776 261.682 272.203C261.007 272.598 260.415 273.122 259.942 273.745C259.469 274.368 259.124 275.078 258.925 275.835C258.727 276.592 258.679 277.381 258.786 278.156C258.892 278.931 259.15 279.678 259.545 280.353C259.924 281.025 260.434 281.614 261.047 282.083C261.659 282.552 262.36 282.892 263.107 283.083C264.306 283.245 265.472 283.547 266.693 283.602C268.547 283.612 270.376 283.174 272.024 282.326C273.074 281.845 274.004 281.136 274.746 280.25C275.488 279.365 276.023 278.325 276.313 277.206C276.692 275.404 276.674 273.541 276.26 271.746C275.672 268.257 274.866 264.797 273.967 261.375C273.759 260.621 273.405 259.915 272.924 259.297C272.444 258.68 271.846 258.164 271.166 257.777C270.485 257.391 269.736 257.143 268.959 257.046C268.183 256.95 267.395 257.007 266.641 257.215C265.134 257.66 263.858 258.672 263.083 260.039C262.307 261.405 262.091 263.019 262.481 264.542H262.491Z" fill="#211715"/>
<path d="M312.656 369.684C315.53 372.928 318.245 376.303 320.958 379.678C323.44 382.753 326.227 385.709 328.523 388.908C329.346 390.066 329.955 391.362 330.319 392.735C330.543 393.554 330.506 394.301 330.662 395.103C330.684 395.214 330.545 396.89 330.821 395.599C330.429 397.441 329.332 399.428 328.758 401.258C324.594 414.672 321.095 428.404 315.285 441.237L323.432 439.1C313.165 434.137 304.29 426.068 295.909 418.481C287.853 411.302 280.184 403.699 272.935 395.706L271.729 405.06C280.001 399.198 288.258 393.324 296.5 387.439C304.702 381.587 313.192 375.983 321.07 369.706C322.178 368.585 322.8 367.071 322.8 365.495C322.8 363.918 322.178 362.404 321.07 361.283C319.935 360.2 318.427 359.596 316.858 359.596C315.289 359.596 313.781 360.2 312.646 361.283C314.215 360.042 313.587 360.571 312.82 361.124C312.217 361.563 311.616 362.005 311.013 362.442C309.14 363.8 307.263 365.153 305.38 366.5C300.241 370.184 295.094 373.862 289.94 377.534C281.866 383.292 273.788 389.042 265.705 394.785C264.936 395.26 264.282 395.9 263.791 396.66C263.301 397.42 262.987 398.279 262.871 399.176C262.756 400.073 262.842 400.984 263.124 401.843C263.407 402.702 263.877 403.488 264.502 404.141C271.942 412.346 279.822 420.14 288.109 427.488C297.013 435.509 306.531 444.138 317.412 449.4C320.072 450.686 324.152 450.373 325.559 447.263C332.032 432.968 335.854 417.861 340.698 402.997C340.947 402.225 341.304 401.456 341.508 400.674C340.86 403.156 341.862 399.93 342.046 399.225C342.307 398.162 342.473 397.078 342.542 395.986C342.724 391.369 341.43 386.814 338.849 382.981C336.296 379.137 332.938 375.697 330.044 372.096C327.113 368.448 324.189 364.787 321.085 361.283C315.987 355.51 307.586 363.961 312.656 369.684Z" fill="#211715"/>
<path d="M258.582 406.775V489.916C258.582 497.582 270.495 497.594 270.495 489.916V406.775C270.495 399.111 258.582 399.096 258.582 406.775Z" fill="#211715"/>
<path d="M188.548 386.868L183.448 389.275C180.661 390.591 179.71 391.013 177.094 392.085C167.465 396.056 157.851 400.068 148.253 404.122C132.866 410.634 117.394 417.136 102.449 424.636C95.9215 428.16 89.8067 432.4 84.2172 437.276C77.54 442.824 71.7588 449.368 67.0777 456.679C57.2125 471.915 50.8094 490.082 45.8954 507.46C36.73 539.867 31.0045 573.104 24.1621 606.052C22.4149 614.461 20.618 622.859 18.7716 631.248C16.5677 641.247 13.731 651.234 12.5149 661.412C10.5894 679.239 13.4043 697.259 20.6751 713.649C26.4404 727.051 35.7596 737.507 46.8608 746.811C58.7971 756.948 71.9323 765.581 85.9718 772.518C88.9897 773.982 92.063 775.323 95.1918 776.541C96.7149 776.949 98.3373 776.741 99.7083 775.962C101.079 775.183 102.089 773.896 102.518 772.379C102.902 770.857 102.684 769.246 101.909 767.881C101.134 766.516 99.8621 765.503 98.3586 765.053C85.6357 759.662 73.6533 752.669 62.7023 744.243C52.1248 736.41 40.9566 727.086 34.6776 715.389C27.2516 701.582 23.5006 686.098 23.7849 670.423C23.9958 660.796 26.3957 651.683 28.5003 642.344C30.4179 633.812 32.2801 625.267 34.0869 616.709C40.7307 585.27 45.9823 553.423 54.1896 522.333C58.2867 505.226 64.1513 488.591 71.689 472.697C75.3031 465.182 80.0165 458.248 85.674 452.122C91.0019 446.7 96.9399 441.913 103.369 437.857C108.803 434.597 114.463 431.73 120.305 429.277C127.83 425.803 135.42 422.49 143.029 419.211C158.54 412.532 174.483 406.643 189.749 399.436L194.574 397.158C195.928 396.351 196.91 395.045 197.31 393.521C197.71 391.997 197.495 390.377 196.711 389.01C195.89 387.671 194.584 386.701 193.065 386.303C191.546 385.904 189.932 386.109 188.56 386.873L188.548 386.868Z" fill="#211715"/>
<path d="M335.76 397.153C363.231 410.123 391.956 420.293 419.278 433.635C432.452 439.9 443.774 449.478 452.135 461.432C461.662 475.643 467.825 492.658 472.486 509.023C481.46 540.527 487.161 572.784 493.772 604.836C497.381 622.326 501.674 639.684 505.218 657.18C508.221 673.996 506.265 691.322 499.59 707.045C494.504 719.519 486.25 728.826 476.067 737.505C464.869 747.04 452.546 755.168 439.373 761.71C436.755 763.008 434.338 764.112 431.96 765.04C430.462 765.499 429.197 766.514 428.423 767.876C427.65 769.239 427.427 770.845 427.8 772.367C428.23 773.884 429.239 775.171 430.61 775.95C431.981 776.729 433.604 776.937 435.127 776.529C448.733 770.982 461.552 763.674 473.257 754.793C485.093 746.064 497.361 736.001 504.935 723.16C513.127 708.883 517.74 692.837 518.382 676.39C518.595 666.276 517.44 656.179 514.947 646.375C512.821 637.086 510.765 627.779 508.78 618.454C501.803 585.771 496.391 552.629 487.932 520.288C483.544 502.139 477.33 484.48 469.386 467.582C465.535 459.612 460.626 452.198 454.793 445.541C449.002 439.34 442.494 433.851 435.405 429.19C430.007 425.683 424.325 422.637 418.417 420.082C410.606 416.446 402.719 412.977 394.81 409.562C385.681 405.621 376.524 401.744 367.338 397.932C360.158 394.939 353.192 392.254 346.878 389.275L341.778 386.868C340.404 386.113 338.793 385.914 337.277 386.312C335.761 386.709 334.454 387.673 333.628 389.005C332.844 390.372 332.629 391.992 333.028 393.516C333.428 395.04 334.411 396.346 335.765 397.153H335.76Z" fill="#211715"/>
<path d="M388.047 288.876C391.789 296.189 393.817 304.257 393.978 312.47C394.378 322.47 392.464 332.156 391.38 342.046C389.749 356.902 395.246 375.337 410.594 381.011L407.033 378.281C406.83 377.743 406.677 377.187 406.576 376.621C406.559 375.95 406.846 375.283 406.539 376.429C406.29 377.34 407.132 375.422 406.715 375.988C406.586 376.166 406.516 376.392 406.387 376.573C406.214 376.822 406.052 377.07 405.891 377.318C406.084 377.025 406.635 376.479 406.089 377.04C405.633 377.519 405.201 378.01 404.719 378.465C404.486 378.683 402.905 379.976 403.831 379.279C402.352 380.375 400.779 381.338 399.13 382.158C391.005 386.27 380.08 386.997 370.629 385.595C369.108 385.226 367.503 385.452 366.142 386.225C364.781 386.998 363.765 388.261 363.303 389.757C362.894 391.28 363.102 392.902 363.88 394.273C364.658 395.644 365.945 396.654 367.462 397.083C378.96 399.2 390.817 398.125 401.746 393.976C408.085 391.325 415.679 386.846 417.93 379.859C418.733 377.934 418.746 375.771 417.967 373.836C417.187 371.902 415.678 370.351 413.766 369.52C410.339 367.574 407.615 364.594 405.983 361.007C400.25 349.938 404.124 337.678 405.407 325.937C407.013 311.244 405.375 296.021 398.336 282.852C394.723 276.089 384.438 282.108 388.052 288.866L388.047 288.876Z" fill="#211715"/>
<path d="M162.171 218.313C157.912 209.691 154.492 200.856 157.366 191.238C159.898 182.766 166.147 176.511 173.441 171.855C189.839 161.392 209.207 158.042 228.272 156.379C250.213 154.484 272.266 154.273 294.239 155.746C313.47 157.009 333.452 159.156 350.824 168.1C359.697 172.665 368.353 178.75 372.416 188.223C376.898 198.694 373.431 208.666 368.664 218.32C367.904 219.693 367.703 221.305 368.101 222.823C368.499 224.34 369.465 225.647 370.8 226.47C372.168 227.253 373.788 227.468 375.312 227.068C376.837 226.668 378.143 225.687 378.951 224.334C384.227 213.647 388.225 202.742 385.629 190.702C383.041 180.139 376.711 170.871 367.812 164.618C350.09 151.371 327.887 146.963 306.343 144.819C282.04 142.462 257.579 142.213 233.233 144.074C211.274 145.692 188.809 148.839 169.552 160.275C158.945 166.577 150.065 175.27 146.156 187.215C141.887 200.255 146.077 212.567 151.891 224.339C152.7 225.69 154.006 226.671 155.529 227.071C157.052 227.47 158.672 227.257 160.039 226.475C161.38 225.656 162.351 224.35 162.749 222.831C163.148 221.311 162.942 219.696 162.176 218.325L162.171 218.313Z" fill="#211715"/>
<path d="M379.447 214.245C367.465 207.122 356.568 198.316 347.089 188.097C336.797 176.7 329.803 162.928 323.167 149.196C322.36 147.843 321.053 146.861 319.529 146.461C318.004 146.061 316.384 146.276 315.017 147.06C313.677 147.88 312.707 149.186 312.309 150.705C311.91 152.224 312.115 153.838 312.88 155.21C319.995 169.927 327.651 184.307 338.666 196.52C348.859 207.468 360.567 216.9 373.434 224.53C379.988 228.55 385.979 218.251 379.447 214.245Z" fill="#211715"/>
<path d="M156.423 225.125C196.06 211.845 234.149 194.329 270.029 172.88C279.395 167.284 288.568 161.36 297.398 154.947C298.728 154.119 299.69 152.813 300.088 151.298C300.485 149.783 300.287 148.173 299.535 146.799C298.729 145.444 297.423 144.46 295.898 144.061C294.373 143.661 292.752 143.877 291.385 144.662C258.689 168.401 221.665 186.905 184.314 202.106C174.084 206.271 163.735 210.147 153.256 213.644C146.019 216.059 149.122 227.567 156.423 225.13V225.125Z" fill="#211715"/>
<path d="M150.271 281.172C153.916 297.387 160.475 312.805 169.629 326.676C179.556 341.59 192.596 355.555 208.388 364.311C216.432 368.79 225.217 371.786 234.323 373.153C235.844 373.523 237.449 373.298 238.81 372.525C240.171 371.752 241.187 370.489 241.649 368.994C242.058 367.471 241.85 365.849 241.072 364.478C240.293 363.107 239.006 362.097 237.489 361.668C217.362 358.689 201.451 347.025 188.426 331.886C175.286 316.362 166.133 297.866 161.762 278.003C160.069 270.53 148.581 273.694 150.276 281.172H150.271Z" fill="#211715"/>
<path d="M207.998 361.261C204.893 364.765 201.97 368.426 199.039 372.074C196.147 375.672 192.787 379.115 190.233 382.959C187.663 386.797 186.37 391.348 186.54 395.964C186.598 397.057 186.764 398.142 187.037 399.203C187.171 399.699 188.3 402.546 187.781 401.126C187.339 399.932 187.851 401.359 187.923 401.578C188.074 402.044 188.233 402.508 188.384 402.975C193.177 417.844 196.941 432.95 203.409 447.241C204.806 450.328 208.914 450.656 211.559 449.378C222.452 444.111 231.99 435.479 240.917 427.466C249.226 420.123 257.126 412.329 264.579 404.119C265.203 403.465 265.674 402.68 265.956 401.821C266.238 400.962 266.324 400.051 266.209 399.154C266.093 398.257 265.779 397.397 265.289 396.637C264.798 395.878 264.145 395.237 263.375 394.763C255.287 389.028 247.209 383.278 239.14 377.511C233.991 373.838 228.844 370.16 223.7 366.477C221.821 365.127 219.943 363.775 218.067 362.42C217.464 361.983 216.863 361.541 216.26 361.102C215.493 360.548 214.865 360.012 216.434 361.261C215.294 360.187 213.788 359.588 212.222 359.588C210.656 359.588 209.15 360.187 208.01 361.261C206.903 362.383 206.282 363.896 206.282 365.472C206.282 367.049 206.903 368.562 208.01 369.684C215.898 375.96 224.39 381.564 232.58 387.416C240.832 393.3 249.089 399.174 257.351 405.037L256.145 395.683C248.883 403.683 241.196 411.286 233.117 418.459C224.713 426.046 215.818 434.107 205.536 439.078L213.686 441.215C207.881 428.389 204.434 414.659 200.312 401.235C199.751 399.409 198.649 397.413 198.259 395.577C198.542 396.907 198.527 393.698 198.642 393.159C198.978 391.634 199.624 390.193 200.54 388.928C202.831 385.702 205.645 382.748 208.122 379.666C210.835 376.29 213.55 372.915 216.424 369.671C221.489 363.963 213.093 355.508 207.998 361.261Z" fill="#211715"/>
<path d="M359.285 364.998C369.118 373.216 378.703 387.57 384.401 400.816C399.907 436.852 410.683 489.705 407.405 548.315C407.354 550.808 406.783 553.262 405.729 555.521C404.675 557.78 403.162 559.794 401.285 561.434C397.79 564.164 393.018 564.435 388.583 564.412C372.152 564.298 355.838 561.638 340.222 556.528C336.782 555.401 333.097 553.924 331.315 550.772C330.041 547.804 329.721 544.512 330.399 541.354C333.591 512.459 336.413 483.527 338.867 454.557C340.626 431.265 340.99 407.888 339.956 384.552" fill="white"/>
<path d="M169.793 364.998C159.962 373.216 150.375 387.57 144.677 400.816C129.17 436.852 118.394 489.705 121.673 548.315C121.724 550.808 122.295 553.262 123.349 555.521C124.402 557.78 125.916 559.794 127.793 561.434C131.287 564.164 136.06 564.435 140.495 564.412C156.926 564.298 173.239 561.638 188.856 556.528C192.298 555.401 195.981 553.924 197.763 550.772C199.078 547.814 199.4 544.51 198.679 541.354C194.611 512.029 192.678 483.527 190.211 454.557C188.59 431.184 188.363 407.735 189.531 384.334" fill="white"/>
<path d="M165.581 360.787C144.032 379.122 133.814 408.351 126.773 434.896C118.933 464.988 115.018 495.967 115.126 527.064C115.126 535.43 114.664 544.436 116.262 552.678C116.872 556.468 118.51 560.019 120.997 562.943C123.484 565.867 126.726 568.052 130.369 569.262C137.723 571.453 146.439 570.389 153.946 569.696C162.453 568.932 170.891 567.527 179.187 565.495C186.332 563.725 195.681 562.02 200.937 556.419C207.04 549.904 204.501 540.681 203.508 532.816C201.287 515.195 199.721 497.505 198.259 479.81C195.626 447.99 193.616 416.275 195.49 384.327C195.939 376.668 184.024 376.693 183.577 384.327C182.175 409.74 182.572 435.221 184.766 460.578C186.113 476.802 187.364 493.035 188.967 509.237C189.786 517.514 190.705 525.78 191.75 534.032C192.422 537.733 192.855 541.474 193.048 545.23C193.048 547.983 191.784 549.023 189.295 550.085C182.049 552.846 174.528 554.826 166.862 555.989C159.318 557.375 151.679 558.177 144.012 558.387C138.462 558.548 131.707 559.332 128.922 553.423C127.854 550.655 127.353 547.702 127.448 544.737C127.248 540.407 127.121 536.073 127.068 531.737C126.612 502.724 129.74 473.765 136.38 445.518C142.833 418.524 152.115 387.841 174.007 369.212C175.112 368.089 175.731 366.576 175.731 365.001C175.731 363.425 175.112 361.912 174.007 360.789C172.875 359.701 171.366 359.093 169.795 359.093C168.225 359.093 166.716 359.701 165.584 360.789L165.581 360.787Z" fill="#211715"/>
<path d="M355.073 369.21C374.68 385.89 383.761 412.145 390.315 436.236C397.64 463.611 401.551 491.787 401.96 520.122C402.107 527.931 402.012 535.74 401.674 543.548C401.446 548.817 401.339 556.205 395.073 557.9C392.163 558.488 389.186 558.664 386.227 558.421C381.934 558.33 377.649 558.063 373.372 557.62C365.747 556.804 358.197 555.404 350.787 553.433C347.15 552.576 343.571 551.49 340.071 550.182C337.703 549.226 336.219 548.36 336.075 545.714C336.112 542.202 336.429 538.698 337.02 535.236C337.507 530.759 337.983 526.28 338.45 521.8C340.174 505.307 341.779 488.803 343.265 472.287C346.311 443.144 347.194 413.814 345.908 384.54C345.464 376.918 333.548 376.869 333.995 384.54C335.287 412.175 334.549 439.867 331.789 467.393C330.215 485.133 328.508 502.862 326.666 520.579C326.22 524.856 325.766 529.131 325.306 533.405C324.604 537.634 324.225 541.911 324.172 546.198C324.584 555.101 330.806 559.642 338.634 562.258C354.75 567.575 371.607 570.309 388.578 570.356C396.609 570.389 404.064 568.637 408.981 561.797C413.776 555.126 413.53 546.635 413.768 538.795C414.817 507.014 411.746 475.23 404.63 444.238C401.364 429.889 396.938 415.83 391.395 402.198C385.073 386.88 376.255 371.64 363.491 360.774C362.356 359.693 360.848 359.091 359.28 359.091C357.712 359.091 356.204 359.693 355.068 360.774C353.964 361.898 353.345 363.41 353.345 364.986C353.345 366.561 353.964 368.074 355.068 369.197L355.073 369.21Z" fill="#211715"/>
<path d="M16.9598 627.066C16.9019 625.967 16.873 624.855 16.873 623.728C16.873 550.378 193.546 539.031 264.539 539.031C327.867 539.031 512.205 539.031 512.205 623.728C512.205 706.348 317.275 714.265 251.365 714.265C186.294 714.265 21.2832 709.681 16.9598 627.066Z" fill="#FFDA71"/>
<path d="M518.161 623.728C518.08 615.564 516.34 607.502 513.048 600.032C509.756 592.561 504.979 585.837 499.009 580.269C485.967 567.765 469.083 559.858 452.197 553.991C432.594 547.481 412.414 542.864 391.931 540.202C370.798 537.162 349.516 535.345 328.198 534.31C294.445 532.672 260.444 532.417 226.691 533.998C182.887 536.05 138.375 540.555 95.9959 552.256C77.0497 557.488 57.8032 564.281 41.3313 575.223C28.0933 584.016 16.0962 596.192 12.294 612.103C11.3925 615.913 10.9295 619.813 10.9141 623.728C10.8744 631.394 22.7872 631.404 22.8269 623.728C22.8384 622.016 22.937 620.305 23.1222 618.603C23.291 617.047 22.8889 619.911 23.1619 618.375C23.2389 617.928 23.3133 617.481 23.4101 617.034C23.5838 616.149 23.784 615.27 24.0107 614.396C24.4392 612.812 24.9478 611.251 25.5345 609.718C25.6313 609.47 26.2518 608.075 25.6189 609.487C25.8001 609.078 25.9837 608.671 26.1773 608.266C26.5612 607.452 26.9748 606.651 27.4182 605.864C28.2174 604.404 29.0913 602.987 30.0366 601.617C30.2847 601.258 31.9227 599.088 31.0293 600.213C31.6117 599.473 32.2131 598.748 32.8336 598.036C35.3191 595.202 38.0343 592.578 40.9516 590.191C41.3462 589.864 41.7458 589.543 42.1454 589.223C43.4806 588.154 41.1998 589.923 42.5772 588.888C43.2771 588.36 43.9827 587.842 44.6942 587.335C46.453 586.082 48.2515 584.887 50.0897 583.748C53.8124 581.44 57.6543 579.35 61.5805 577.425C69.9743 573.374 78.6593 569.957 87.5627 567.202C128.495 554.073 171.25 549.239 213.887 546.603C246.754 544.578 279.77 544.541 312.664 545.598C353.346 546.906 393.492 549.891 432.714 560.489C450.447 565.276 466.356 570.892 481.485 581.314C482.201 581.81 482.912 582.315 483.617 582.828C484.035 583.134 484.449 583.442 484.857 583.753C486.222 584.786 483.949 583.009 485.274 584.083C486.764 585.294 488.253 586.54 489.667 587.851C491.047 589.13 492.371 590.462 493.638 591.846C494.181 592.44 494.713 593.044 495.234 593.656C495.544 594.021 495.844 594.4 496.15 594.76C496.351 595.008 496.549 595.256 496.745 595.505C496.348 594.988 496.279 594.906 496.537 595.257C498.693 598.142 500.568 601.228 502.136 604.472C502.302 604.824 502.461 605.179 502.632 605.534C503.292 606.968 502.183 604.362 502.764 605.834C503.079 606.636 503.384 607.44 503.665 608.254C504.256 609.976 504.753 611.729 505.154 613.505C505.367 614.448 505.536 615.399 505.71 616.349C505.754 616.598 505.98 618.223 505.784 616.704C505.836 617.114 505.886 617.523 505.926 617.945C506.114 619.879 506.218 621.812 506.226 623.758C506.261 631.422 518.173 631.436 518.139 623.758L518.161 623.728Z" fill="#211715"/>
<path d="M193.244 549.276C218.638 549.179 316.995 590.722 320.407 591.767C328.972 594.361 370.54 577.072 370.818 576.097C370.974 575.553 361.588 547.347 361.665 546.387C361.777 544.99 381.053 539.468 379.673 537.189C371.979 524.502 360.489 510.634 347.26 504.308C354.075 499.421 363.233 497.073 359.826 492.643C353.778 484.776 342.962 474.801 330.089 472.059C307.752 467.306 292.186 469.413 272.486 478.814C242.944 492.651 215.595 510.752 191.315 532.538" fill="#74C66D"/>
<path d="M193.244 555.232C194.762 555.258 196.278 555.363 197.785 555.547C198.12 555.582 196.544 555.339 197.756 555.547C198.232 555.627 198.709 555.694 199.185 555.773C200.131 555.939 201.075 556.114 202.014 556.299C206.665 557.23 211.259 558.434 215.818 559.727C227.006 562.896 238.03 566.649 248.983 570.55C269.284 577.782 289.342 585.677 309.328 593.733C313.547 595.43 317.98 597.934 322.623 597.987C327.442 597.794 332.211 596.927 336.79 595.413C342.421 593.827 347.958 591.914 353.44 589.881C358.554 587.985 363.619 585.955 368.634 583.793C371.637 582.495 375.595 581.237 376.576 577.69C377.504 574.312 375.163 569.649 374.168 566.522C372.55 561.429 370.9 556.347 369.299 551.246C368.755 549.509 368.373 547.62 367.686 545.943C367.644 545.726 367.588 545.512 367.517 545.302C366.651 543.838 365.993 551.105 365.075 551.12C365.827 550.855 366.544 550.499 367.209 550.06C366.194 550.507 367.152 550.09 367.611 549.909L369.17 549.296C370.485 548.784 371.801 548.281 373.111 547.759C375.737 546.814 378.293 545.687 380.762 544.387C382.131 543.787 383.313 542.831 384.186 541.619C385.059 540.407 385.591 538.982 385.726 537.495C385.756 533.727 382.093 529.759 380.018 526.835C374.868 519.26 368.682 512.444 361.64 506.586C358.138 503.708 354.332 501.222 350.288 499.173V509.46C355.304 505.985 364.1 503.469 366.127 497.026C368.182 490.496 361.017 484.401 356.746 480.423C351.367 475.313 345.098 471.232 338.249 468.381C330.526 465.605 322.413 464.067 314.21 463.824C299.08 463.201 284.039 466.43 270.498 473.208C255.805 480.059 241.622 487.954 228.059 496.832C213.684 506.346 200.007 516.874 187.133 528.337C181.375 533.419 189.826 541.818 195.557 536.76C215.969 518.642 238.505 503.068 262.67 490.38C274.613 484.143 286.992 477.802 300.52 476.065C306.759 475.333 313.065 475.379 319.293 476.204C325.823 476.726 332.195 478.483 338.07 481.381C344.031 484.747 349.325 489.177 353.691 494.45C354.002 494.878 354.34 495.286 354.703 495.671C355.254 496.28 355.37 496.445 355.051 496.167C354.82 495.807 354.68 495.397 354.642 494.971C354.603 494.545 354.668 494.116 354.83 493.72C355.13 492.41 355.532 492.728 354.847 492.899C355.368 492.762 353.959 493.457 353.753 493.584C350.623 495.51 347.3 497.078 344.285 499.18C340.904 501.528 339.959 507.343 344.285 509.467C353.396 514.326 361.275 521.206 367.316 529.58C368.942 531.695 370.475 533.889 371.945 536.117C372.489 537.111 373.101 538.066 373.776 538.976C374.727 540.048 373.801 533.722 375.578 533.583C374.771 533.645 373.319 534.824 372.548 535.169C372.155 535.372 371.75 535.547 371.334 535.695C370.485 536.041 369.635 536.379 368.783 536.71C363.529 538.77 354.363 540.696 355.954 548.228C357.174 553.014 358.635 557.736 360.33 562.375C361.382 565.661 362.439 568.944 363.474 572.235C363.851 573.434 364.219 574.635 364.586 575.841C364.953 577.047 364.785 578.571 364.856 576.089L365.668 573.084C365.497 573.377 367.43 570.85 367.611 571.118C367.611 571.118 367.363 571.28 367.328 571.29C367.053 571.405 366.788 571.544 366.537 571.704C365.668 572.099 364.812 572.521 363.941 572.908C363.444 573.134 362.918 573.354 362.409 573.578C360.893 574.238 362.747 573.449 361.399 574.005C359.761 574.683 358.119 575.345 356.473 575.99C349.365 578.795 342.158 581.413 334.817 583.552C331.576 584.522 328.283 585.307 324.954 585.905C323.988 586.071 325.837 585.905 324.333 585.975C323.76 586.002 323.189 586.034 322.618 586.056C321.583 586.096 321.236 585.473 322.492 586.128C322.306 586.032 322.053 586.059 321.861 585.965C319.628 584.878 317.173 584.118 314.883 583.192C288.079 572.382 261.159 561.67 233.658 552.721C226.076 550.239 218.434 547.906 210.683 546.02C204.994 544.434 199.14 543.518 193.239 543.29C185.572 543.272 185.56 555.185 193.239 555.202L193.244 555.232Z" fill="#211715"/>
<path d="M273.471 516.491C272.178 516.665 274.109 516.429 274.359 516.404C275.003 516.338 275.646 516.281 276.288 516.233C277.391 516.152 278.497 516.096 279.606 516.067C282.007 516.002 284.409 516.063 286.803 516.25C287.907 516.338 289.008 516.45 290.107 516.588C288.813 516.426 290.739 516.69 290.99 516.729C291.625 516.833 292.263 516.945 292.896 517.067C295.252 517.522 297.582 518.096 299.88 518.787C301.38 519.14 302.96 518.898 304.286 518.112C305.611 517.325 306.581 516.055 306.989 514.569C307.398 513.082 307.215 511.495 306.478 510.141C305.741 508.787 304.507 507.772 303.037 507.308C292.415 504.213 281.254 503.43 270.304 505.013C269.55 505.22 268.844 505.575 268.227 506.055C267.609 506.536 267.093 507.134 266.707 507.814C266.32 508.494 266.072 509.244 265.975 510.021C265.879 510.797 265.936 511.585 266.145 512.339C266.607 513.835 267.622 515.098 268.983 515.871C270.345 516.644 271.949 516.869 273.471 516.501V516.491Z" fill="#211715"/>
<path d="M210.289 584.17C211.853 582.066 213.137 579.767 214.106 577.33C219.841 562.804 212.421 546.273 202.374 534.315C197.994 528.575 192.25 524.018 185.664 521.058C170.999 515.329 154.765 522.971 141.222 530.985C109.271 549.921 87.0787 565.889 58.6966 593.723C52.9627 599.289 48.3064 605.867 44.9622 613.126C43.3066 616.675 42.6707 620.615 43.1256 624.505C43.5805 628.396 45.1084 632.082 47.5383 635.154C53.6809 642.22 63.695 643.267 73.0192 642.428C112.766 638.845 149.645 620.943 185.101 602.625C194.395 597.835 204.236 592.37 210.289 584.17Z" fill="#FEBE69"/>
<path d="M215.429 587.176C225.038 573.744 222.951 556.935 215.515 543.039C208.134 529.24 195.601 515.491 179.353 513.438C162.61 511.324 146.943 520.564 133.176 528.863C120.558 536.472 108.182 544.498 96.3756 553.314C84.1507 562.482 72.4666 572.349 61.3819 582.867C50.313 593.333 36.5637 606.742 37.0874 623.281C37.1695 627.092 38.1221 630.833 39.8724 634.219C41.6228 637.605 44.1244 640.545 47.1859 642.816C53.4178 646.987 60.8326 649.028 68.3211 648.633C84.8004 648.474 101.793 644.141 117.382 639.098C135.407 633.023 152.964 625.641 169.914 617.01C185.9 609.113 204.332 601.759 215.429 587.176C216.216 585.809 216.436 584.187 216.036 582.662C215.636 581.136 214.651 579.83 213.294 579.025C211.921 578.267 210.309 578.066 208.792 578.463C207.274 578.861 205.968 579.828 205.144 581.162C200.875 586.199 195.651 590.342 189.774 593.351C183.321 597.053 176.62 600.337 169.996 603.68C156.614 610.425 143.069 616.905 129.086 622.321C115.141 627.86 100.689 632.025 85.9346 634.757C75.8534 636.534 57.7858 640.57 51.0005 629.88C44.0017 618.859 55.6489 605.412 62.9132 597.947C72.846 587.893 83.3925 578.465 94.4919 569.716C104.519 561.76 114.957 554.337 125.763 547.477C137.343 540.058 149.395 531.593 162.536 527.255C169.641 524.902 177.489 523.837 184.53 527.007C190.911 530.363 196.344 535.27 200.332 541.277C208.914 553.011 214.381 568.239 205.139 581.155C204.355 582.522 204.14 584.143 204.539 585.667C204.939 587.192 205.922 588.498 207.276 589.305C208.647 590.071 210.261 590.277 211.78 589.88C213.3 589.483 214.607 588.514 215.429 587.176Z" fill="#211715"/>
<path d="M169.733 557.893C170.421 558.699 171.098 559.513 171.756 560.345C171.88 560.501 172.401 561.171 171.816 560.419C171.23 559.667 171.739 560.325 171.858 560.486C172.121 560.836 172.376 561.189 172.63 561.546C173.736 563.102 174.786 564.713 175.752 566.361C176.213 567.145 176.633 567.952 177.025 568.771C177.231 569.197 177.419 569.629 177.616 570.061C177.921 570.734 177.119 568.803 177.501 569.798C177.588 570.021 177.68 570.242 177.764 570.468C178.473 572.303 179.064 574.18 179.534 576.089C179.967 577.604 180.977 578.889 182.347 579.667C183.717 580.446 185.337 580.655 186.86 580.251C188.366 579.804 189.64 578.791 190.416 577.424C191.191 576.058 191.408 574.445 191.02 572.923C189.97 568.514 188.292 564.279 186.039 560.347C183.735 556.498 181.097 552.858 178.157 549.469C177.036 548.359 175.522 547.736 173.945 547.736C172.367 547.736 170.854 548.359 169.733 549.469C168.652 550.605 168.049 552.113 168.049 553.681C168.049 555.249 168.652 556.757 169.733 557.893Z" fill="#211715"/>
<path d="M148.879 573.029C152.552 578.174 155.818 583.597 158.647 589.251C159.451 590.607 160.757 591.592 162.282 591.992C163.807 592.392 165.429 592.175 166.795 591.387C168.128 590.566 169.094 589.263 169.492 587.748C169.89 586.233 169.689 584.623 168.932 583.252C166.106 577.598 162.841 572.174 159.166 567.031C158.344 565.725 157.081 564.756 155.607 564.301C154.057 563.887 152.407 564.103 151.015 564.901C149.681 565.692 148.703 566.967 148.285 568.46C148.067 569.226 148.007 570.028 148.11 570.817C148.214 571.606 148.478 572.366 148.886 573.049L148.879 573.029Z" fill="#211715"/>
<path d="M348.347 474.084C342.24 474.684 336.076 473.89 330.319 471.761C314.684 465.805 291.407 470.116 276.015 485.188C266.606 496.635 261.696 511.122 262.206 525.931C262.715 540.74 268.609 554.855 278.782 565.629C288.027 575.144 300.994 581.391 311.324 585.213C319.405 588.188 328.025 589.418 336.616 588.821C348.955 587.985 364.062 585.098 374.873 578.06C382.295 573.265 388.59 566.917 393.322 559.455C398.054 551.992 401.112 543.592 402.285 534.834C404.734 516.985 400.463 497.736 385.408 485.654C380.333 481.322 374.432 478.063 368.063 476.075C361.693 474.086 354.986 473.409 348.347 474.084Z" fill="#F2635F"/>
<path d="M348.347 468.128C344.313 468.522 340.241 468.271 336.286 467.383C332.826 466.534 329.585 465.068 326.09 464.35C319.386 463.039 312.502 462.937 305.762 464.048C292.072 466.147 277.357 473.166 269.071 484.545C252.368 507.482 251.864 540.344 268.984 563.219C278.365 575.747 291.754 583.756 306.07 589.548C321.457 595.78 337.385 595.85 353.49 592.527C368.073 590.013 381.403 582.712 391.375 571.779C401.347 560.845 407.392 546.901 408.556 532.149C409.51 524.197 408.861 516.136 406.649 508.439C404.436 500.742 400.705 493.566 395.676 487.335C389.838 480.655 382.515 475.439 374.296 472.103C366.076 468.768 357.189 467.405 348.347 468.128C346.78 468.166 345.287 468.809 344.178 469.917C343.069 471.026 342.429 472.519 342.391 474.087C342.403 475.663 343.035 477.17 344.149 478.285C345.264 479.399 346.772 480.031 348.347 480.043C354.994 479.407 361.699 480.24 367.987 482.485C374.275 484.73 379.993 488.331 384.733 493.033C392.651 501.403 397.03 512.507 396.959 524.028C397.42 536.278 393.813 548.336 386.702 558.32C379.59 568.305 369.374 575.655 357.647 579.224C344.692 583.034 330.3 584.624 317.171 580.869C304.489 577.412 292.867 570.852 283.354 561.782C275.258 553.283 270.097 542.415 268.627 530.77C267.157 519.124 269.456 507.315 275.186 497.071C276.704 494.046 278.631 491.245 280.911 488.744C283.243 486.498 285.824 484.526 288.605 482.867C294.315 479.376 300.629 476.983 307.219 475.814C312.917 474.74 318.777 474.862 324.425 476.174C327.751 476.988 330.878 478.407 334.228 479.122C338.865 480.106 343.622 480.416 348.347 480.043C349.915 480.005 351.406 479.366 352.515 478.257C353.624 477.148 354.264 475.654 354.301 474.087C354.29 472.511 353.659 471.003 352.545 469.888C351.431 468.773 349.923 468.141 348.347 468.128Z" fill="#211715"/>
<path d="M333.846 471.463C331.679 472.533 329.63 473.827 327.733 475.325C325.805 476.781 324.033 478.433 322.445 480.254C321.362 481.396 320.743 482.9 320.707 484.473C320.714 486.052 321.337 487.566 322.445 488.692C323.566 489.806 325.083 490.43 326.664 490.429C327.447 490.435 328.224 490.285 328.949 489.987C329.673 489.688 330.331 489.248 330.883 488.692C332.289 487.048 333.859 485.551 335.569 484.225L334.365 485.158C336.081 483.841 337.927 482.702 339.874 481.76C341.21 480.971 342.188 479.696 342.604 478.201C343.016 476.652 342.801 475.003 342.004 473.613C341.215 472.277 339.94 471.298 338.445 470.883L336.862 470.669C335.804 470.667 334.766 470.948 333.854 471.483L333.846 471.463Z" fill="#211715"/>
<path d="M337.832 483.061C337.996 483.264 338.16 483.47 338.328 483.676L337.398 482.473C339.035 484.608 340.394 486.943 341.443 489.422L340.842 487.997C341.372 489.267 341.821 490.569 342.185 491.896C342.615 493.384 343.59 494.656 344.915 495.458C346.306 496.254 347.955 496.47 349.504 496.058C350.998 495.641 352.273 494.663 353.063 493.328C353.848 491.933 354.063 490.287 353.663 488.737C352.251 483.558 349.724 478.751 346.258 474.652C345.137 473.538 343.619 472.914 342.039 472.915C340.46 472.923 338.946 473.546 337.82 474.652C336.706 475.774 336.082 477.291 336.082 478.872L336.293 480.455C336.567 481.45 337.096 482.356 337.827 483.083L337.832 483.061Z" fill="#211715"/>
<path d="M320.067 455.173C323.178 459.43 325.792 464.029 327.86 468.88L327.259 467.458C327.832 468.818 328.363 470.193 328.853 471.585C329.3 473.064 330.27 474.329 331.583 475.144C332.605 475.743 333.783 476.023 334.966 475.948C336.149 475.874 337.282 475.448 338.222 474.726C339.162 474.004 339.864 473.018 340.241 471.895C340.617 470.771 340.649 469.56 340.334 468.418C337.964 461.545 334.599 455.056 330.347 449.159C329.525 447.852 328.261 446.884 326.785 446.429C325.236 446.017 323.587 446.233 322.197 447.03C320.862 447.82 319.884 449.095 319.467 450.589C319.248 451.355 319.188 452.157 319.291 452.947C319.395 453.736 319.659 454.496 320.067 455.18V455.173Z" fill="#211715"/>
<path d="M352.79 448.77C348.708 455.361 344.724 462.013 340.837 468.723C340.443 469.399 340.185 470.145 340.078 470.92C339.972 471.695 340.019 472.484 340.218 473.24C340.416 473.997 340.761 474.707 341.234 475.33C341.707 475.954 342.298 476.478 342.973 476.872C343.648 477.267 344.395 477.525 345.17 477.632C345.945 477.738 346.733 477.691 347.49 477.492C348.247 477.294 348.957 476.949 349.58 476.476C350.203 476.003 350.727 475.412 351.122 474.737C355.009 468.026 358.993 461.374 363.075 454.781C363.857 453.413 364.072 451.794 363.672 450.27C363.272 448.746 362.291 447.44 360.938 446.633C359.567 445.867 357.952 445.662 356.433 446.06C354.914 446.458 353.609 447.429 352.79 448.77Z" fill="#211715"/>
<path d="M353.889 635.827C344.094 622.921 341.029 607.331 343.195 590.549C344.719 579.616 348.907 569.226 355.392 560.293C361.876 551.361 370.458 544.159 380.38 539.324C392.382 534.128 405.895 533.616 418.255 537.889C420.916 534.643 423.219 529.364 425.492 527.552C428.168 525.421 429.446 525.738 432.34 527.552C437.502 530.801 445.203 535.613 450.189 539.125C450.365 539.205 450.523 539.319 450.654 539.461C450.784 539.603 450.885 539.77 450.95 539.952C451.015 540.134 451.043 540.327 451.031 540.519C451.02 540.712 450.97 540.901 450.884 541.073C449.968 544.724 448.978 548.519 448.293 551.42C456.457 557.164 462.749 565.186 466.383 574.484C474.032 594.373 471.634 618.184 458.937 635.306C446.24 652.428 417.116 665.887 390.767 659.131C383.321 658.121 370.453 651.423 364.566 646.722C360.57 643.546 356.983 639.887 353.889 635.827Z" fill="#FEBE69"/>
<path d="M359.032 632.821C347.494 617.317 345.712 596.815 352.162 578.81C357.778 563.139 371.205 547.884 387.478 542.947C397.023 539.987 407.274 540.224 416.672 543.622C417.685 543.925 418.763 543.942 419.785 543.672C420.808 543.402 421.736 542.855 422.467 542.091C424.48 539.517 426.115 536.78 427.872 534.035C427.855 534.062 429.319 532.017 429.342 532.064C429.203 531.784 428.453 531.995 428.426 532.144C429.062 532.605 429.73 533.02 430.426 533.385C433.211 535.137 435.993 536.887 438.76 538.666C440.182 539.582 441.604 540.503 443.014 541.436C443.676 541.878 444.338 542.322 444.999 542.769C445.652 543.21 447.233 544.89 445.776 542.893L444.962 539.885C445.187 539.314 445.199 539.367 444.997 540.043L444.58 541.694L443.888 544.424C443.431 546.231 442.977 548.04 442.545 549.852C442.238 551.118 442.336 552.448 442.826 553.655C443.316 554.863 444.173 555.886 445.275 556.58C466.619 572.322 470.217 604.33 457.483 626.654C451.196 637.019 441.721 645.068 430.476 649.596C418.375 654.858 404.922 656.17 392.032 653.344C378.507 650.347 366.481 642.655 358.089 631.633C356.967 630.518 355.45 629.893 353.87 629.893C352.289 629.893 350.772 630.518 349.65 631.633C348.571 632.769 347.969 634.277 347.969 635.844C347.969 637.412 348.571 638.919 349.65 640.056C368.574 664.532 403.01 672.878 431.551 661.931C445.366 657.027 457.314 647.947 465.74 635.951C472.218 625.628 475.94 613.816 476.548 601.644C477.156 589.472 474.631 577.347 469.215 566.43C464.853 558.433 458.714 551.544 451.271 546.293L454.001 553.018C455.279 547.675 459.277 539.617 454.579 535.095C452.45 533.307 450.163 531.716 447.747 530.342C445.178 528.659 442.59 527.011 439.994 525.378C435.117 522.296 429.972 518.251 424.06 521.353C418.988 524.016 417.33 529.444 414.007 533.69L419.804 532.159C409.699 528.647 398.81 528.05 388.382 530.436C378.109 532.908 368.656 538.011 360.953 545.243C352.966 552.469 346.648 561.347 342.438 571.261C338.229 581.175 336.228 591.887 336.576 602.652C336.812 615.679 341.048 628.317 348.71 638.855C349.54 640.183 350.846 641.144 352.361 641.541C353.876 641.938 355.485 641.742 356.86 640.992C358.227 640.192 359.223 638.885 359.63 637.354C360.037 635.823 359.822 634.194 359.032 632.821Z" fill="#211715"/>
<path d="M391.246 553.334C385.418 558.374 380.337 564.219 376.156 570.691C371.807 578.008 369.005 586.139 367.922 594.582C367.542 596.103 367.762 597.713 368.537 599.077C369.311 600.441 370.58 601.456 372.081 601.91C373.604 602.312 375.223 602.101 376.593 601.323C377.962 600.545 378.972 599.262 379.407 597.748C379.983 593.942 380.844 590.185 381.984 586.508C382.276 585.58 382.592 584.658 382.929 583.741C383.115 583.245 383.306 582.733 383.51 582.234C383.279 582.795 383.589 582.048 383.659 581.892C384.463 580.098 385.394 578.364 386.443 576.702C387.367 575.256 388.342 573.836 389.352 572.449C389.558 572.163 389.771 571.88 389.982 571.595C390.394 571.039 389.464 572.22 390.166 571.362C390.662 570.761 391.159 570.16 391.655 569.575C394.149 566.795 396.825 564.183 399.664 561.757C400.766 560.637 401.381 559.127 401.374 557.555C401.368 555.984 400.741 554.479 399.63 553.368C398.519 552.257 397.014 551.63 395.442 551.623C393.871 551.617 392.361 552.232 391.241 553.334H391.246Z" fill="#211715"/>
<path d="M409.011 566.224C405.238 569.06 402.08 572.633 399.729 576.725C397.637 580.375 396.07 584.302 395.075 588.389C394.655 589.913 394.858 591.541 395.638 592.915C396.418 594.289 397.712 595.297 399.236 595.717C400.759 596.137 402.387 595.934 403.761 595.154C405.136 594.374 406.143 593.08 406.563 591.556C407.081 589.422 407.771 587.334 408.628 585.312L408.028 586.736C409.193 583.979 410.701 581.379 412.515 578.998L411.582 580.204C412.871 578.547 414.356 577.051 416.004 575.749L414.798 576.68L415.024 576.509C416.325 575.682 417.292 574.421 417.754 572.95C418.166 571.4 417.95 569.75 417.153 568.359C416.364 567.023 415.089 566.045 413.594 565.629C412.829 565.406 412.026 565.344 411.236 565.447C410.446 565.55 409.686 565.815 409.003 566.227L409.011 566.224Z" fill="#211715"/>
<path d="M95.7775 635.211C95.9438 622.554 101.533 611.505 110.917 602.203C117.099 596.204 124.662 591.817 132.939 589.428C141.216 587.039 149.953 586.723 158.381 588.506C168.281 591.161 177.007 597.054 183.167 605.246C187.358 611.332 190.753 617.93 193.271 624.877C195.596 633.898 195.681 643.351 193.519 652.413C191.285 660.225 187.1 667.34 181.359 673.089C175.618 678.838 168.508 683.032 160.699 685.277C144.677 689.73 120.29 684.036 107.318 667.232C103.228 663.045 98.5125 652.743 97.1425 647.022C96.2013 643.157 95.7428 639.19 95.7775 635.211Z" fill="#AD7B59"/>
<path d="M101.734 635.211C102.205 615.677 117.915 599.292 136.363 594.686C145.589 592.103 155.436 592.903 164.124 596.942C168.768 599.304 172.944 602.489 176.449 606.343C177.007 606.966 177.511 607.606 178.025 608.264C179.728 610.448 179.08 609.639 178.717 609.137C178.974 609.49 179.222 609.845 179.462 610.205C180.664 612.051 181.763 613.963 182.755 615.93C185.103 620.008 186.909 624.373 188.129 628.917C189.039 633.49 189.341 638.164 189.027 642.816C188.481 651.359 185.215 659.504 179.708 666.058C168.487 679.584 151.663 683.505 135.238 678.747C125.697 676.095 117.273 670.419 111.232 662.571C105.191 654.724 101.858 645.129 101.734 635.226C101.734 627.56 89.8211 627.547 89.8211 635.226C89.9338 646.438 93.3183 657.372 99.5592 666.687C105.8 676.002 114.625 683.291 124.951 687.66C144.913 696.098 167.703 693.864 183.947 678.889C192.042 671.473 197.643 661.732 199.982 651.006C201.046 645.3 201.313 639.474 200.776 633.695C200.258 627.866 198.758 622.167 196.338 616.838C191.685 606.251 186.101 597.617 176.697 590.742C166.618 583.452 154.16 580.232 141.81 581.726C114.538 584.776 90.5036 606.931 89.8211 635.219C89.635 642.88 101.548 642.875 101.734 635.211Z" fill="#211715"/>
<path d="M365.527 585.774C366.016 575.812 365.691 565.826 364.554 555.917C364.311 552.79 363.469 549.739 362.072 546.931C359.789 543.58 356.587 540.96 352.849 539.388C337.884 531.941 320.823 529.83 304.494 533.407L304.245 518.516C274.424 515.342 233.119 528.543 214.677 556.153C214.677 556.153 170.83 613.629 241.187 636.192C357.456 673.471 365.527 585.774 365.527 585.774Z" fill="#74C66D"/>
<path d="M309.303 572.511C301.041 572.647 291.516 580.552 286.719 585.855C284.393 588.429 283.185 590.392 283.778 590.558C290.032 592.296 296.492 594.122 301.558 598.19C306.566 602.213 309.902 609.043 307.909 615.151C307.469 616.493 306.799 618 307.484 619.238C308.051 620.018 308.853 620.594 309.772 620.884C325.408 627.873 336.162 643.101 341.666 659.327C347.171 675.553 348.119 692.916 349.018 710.026C349.17 711.972 349.187 713.927 349.067 715.875C357.977 709.088 365.944 703.007 365.944 703.007C388.667 676.171 392.777 635.129 375.538 608.065C359.498 582.865 338.03 572.032 309.303 572.511Z" fill="#ACDDA7"/>
<path d="M302.804 578.757C314.069 577.705 325.43 578.927 336.214 582.351C345.981 585.841 354.715 591.729 361.613 599.476C369.289 607.639 374.87 617.543 377.879 628.337C380.71 639.371 381.028 650.901 378.809 662.075C376.309 675.562 370.438 688.197 361.742 698.806C360.664 699.943 360.063 701.45 360.063 703.017C360.063 704.584 360.664 706.092 361.742 707.229C362.865 708.334 364.378 708.954 365.953 708.954C367.529 708.954 369.042 708.334 370.165 707.229C379 696.678 385.404 684.311 388.921 671.007C392.438 657.702 392.983 643.786 390.516 630.248C387.995 617.837 382.578 606.198 374.705 596.279C366.833 586.359 356.729 578.44 345.215 573.166C331.784 567.708 317.242 565.545 302.804 566.857C301.235 566.893 299.741 567.532 298.632 568.641C297.522 569.751 296.883 571.245 296.847 572.813C296.86 574.389 297.492 575.897 298.606 577.011C299.72 578.125 301.228 578.757 302.804 578.77V578.757Z" fill="#211715"/>
<path d="M226.627 739.319C211.775 733.405 198.199 724.689 186.639 713.647C177.223 704.993 171.019 690.707 169.267 685.468C164.09 669.74 162.224 653.111 163.787 636.626C165.349 620.142 170.307 604.16 178.348 589.685C185.111 577.68 195.264 566.108 208.874 563.976C216.193 562.834 224.12 567.1 231.426 565.884C237.216 564.921 242.47 559.59 248.303 560.325C264.988 562.427 270.587 591.233 278.442 589.007C286.185 591.43 295.043 592.941 301.58 598.19C306.588 602.213 309.924 609.043 307.931 615.151C307.492 616.493 306.822 618 307.507 619.238C308.074 620.018 308.876 620.594 309.795 620.884C325.43 627.873 336.184 643.101 341.689 659.327C347.193 675.553 348.141 692.916 349.04 710.026C349.134 711.823 348.268 723.641 340.368 728.858C322.379 740.974 301.101 747.269 279.415 746.891C263.149 746.804 245.707 746.603 226.627 739.319Z" fill="#74C66D"/>
<path d="M272.136 573.806C267.343 566.083 261.553 557.923 252.432 555.13C247.619 553.82 242.488 554.393 238.083 556.734C234.017 558.58 230.99 560.528 226.358 560.037C221.335 559.503 216.488 557.781 211.386 557.831C206.404 558.021 201.529 559.323 197.115 561.64C188.751 566.236 181.713 572.91 176.68 581.018C155.388 612.609 150.737 658.24 165.976 693.251C169.299 701.145 173.869 708.454 179.512 714.898C186.87 722.641 195.25 729.345 204.419 734.824C218.871 743.804 235.118 749.502 252.013 751.514C268.338 753.73 284.899 753.553 301.173 750.988C311.561 749.177 321.634 745.879 331.081 741.195C339.388 737.095 348.134 732.355 351.993 723.5C354.536 717.045 355.436 710.06 354.612 703.171C354.153 691.973 352.848 680.826 350.708 669.825C346.702 650.963 337.695 632.829 321.956 621.142C320.226 619.851 318.414 618.675 316.53 617.62C315.089 616.814 312.502 616.052 311.708 615.027L313.24 617.655C313.346 618.012 313.838 616.166 313.912 615.856C314.172 614.752 314.338 613.629 314.409 612.498C314.523 610.469 314.323 608.435 313.815 606.467C312.735 602.484 310.668 598.838 307.807 595.865C302.027 589.675 293.484 587.086 285.582 584.865C278.189 582.785 275.034 594.276 282.415 596.351C289.727 598.406 300.878 601.124 302.426 610.075C302.564 611.793 302.309 613.519 301.682 615.123C301.206 616.651 301.143 618.278 301.499 619.838C301.855 621.398 302.618 622.836 303.709 624.006C305.402 625.351 307.281 626.442 309.289 627.245C311.202 628.248 313.049 629.373 314.818 630.613C329.957 641.168 337.003 660.015 340.083 677.462C341.969 688.216 342.965 699.108 343.061 710.026C343.061 710.676 343.012 711.314 342.974 711.962C342.885 713.399 343.113 711.403 342.89 712.59C342.739 713.386 342.585 714.18 342.394 714.965C341.836 717.955 340.414 720.716 338.303 722.906C334.722 725.853 330.758 728.301 326.52 730.183C322.02 732.489 317.338 734.421 312.522 735.961C303.013 738.999 293.12 740.664 283.14 740.905C268.989 741.621 254.806 740.486 240.949 737.529C223.497 733.03 207.394 724.369 194.02 712.287C181.115 701.014 174.662 686.516 171.356 670.314C167.559 651.147 168.723 631.327 174.737 612.736C177.583 603.638 181.7 594.987 186.965 587.039C191.571 580.207 197.885 573.412 205.943 570.806C215.25 567.793 224.395 573.709 233.868 571.461C238.167 570.438 241.741 567.306 246.012 566.39C249.266 565.693 252.405 567.964 254.619 570.128C257.412 573.057 259.838 576.314 261.846 579.827C265.879 586.327 276.191 580.353 272.133 573.814L272.136 573.806Z" fill="#211715"/>
<path d="M219.826 559.161C228.739 546.007 242.925 536.792 257.597 531.223C272.417 525.39 288.39 523.079 304.255 524.472L298.299 518.516L298.547 533.407C298.563 534.319 298.785 535.215 299.197 536.029C299.609 536.843 300.2 537.553 300.926 538.105C301.651 538.658 302.493 539.039 303.387 539.22C304.28 539.401 305.204 539.377 306.087 539.15C321.803 535.673 338.248 538.06 352.326 545.863C353.653 546.498 354.832 547.404 355.788 548.522C356.743 549.64 357.455 550.946 357.875 552.356C358.146 553.366 358.339 554.396 358.51 555.428C358.51 555.356 358.915 558.347 358.759 557.094C358.94 558.583 359.076 560.057 359.195 561.541C359.838 569.602 359.965 577.696 359.578 585.773C359.21 593.435 371.123 593.417 371.49 585.773C371.963 576.656 371.737 567.516 370.815 558.434C370.578 554.105 369.667 549.841 368.113 545.794C366.167 541.721 363.038 538.33 359.133 536.065C342.801 525.842 321.447 523.693 302.91 527.667L310.45 533.41L310.202 518.519C310.16 516.952 309.519 515.461 308.411 514.353C307.303 513.245 305.812 512.604 304.245 512.562C286.721 511.057 269.089 513.732 252.8 520.368C235.663 527.178 219.993 537.715 209.532 553.15C205.221 559.513 215.538 565.482 219.819 559.163L219.826 559.161Z" fill="#211715"/>
<path d="M216.732 684.212C219.462 659.002 229.937 633.015 247.01 614.121C252.137 608.445 243.739 599.994 238.586 605.698C219.228 627.108 207.909 655.676 204.819 684.212C204.829 685.789 205.459 687.298 206.574 688.413C207.689 689.528 209.198 690.159 210.775 690.169C212.344 690.134 213.839 689.495 214.948 688.386C216.058 687.276 216.697 685.781 216.732 684.212Z" fill="#211715"/>
<path d="M230.339 698.066C250.638 697.159 270.242 690.405 286.791 678.616C288.122 677.788 289.085 676.482 289.482 674.966C289.88 673.45 289.681 671.84 288.928 670.466C288.122 669.111 286.815 668.127 285.29 667.727C283.765 667.327 282.144 667.543 280.777 668.329C266.043 679.024 248.522 685.216 230.339 686.153C228.77 686.185 227.273 686.823 226.163 687.933C225.052 689.043 224.415 690.54 224.383 692.11C224.398 693.684 225.031 695.191 226.145 696.304C227.258 697.418 228.764 698.05 230.339 698.066Z" fill="#211715"/>
<path d="M44.0142 700.642C38.5407 691.074 34.6581 680.681 32.5184 669.867C32.5184 669.867 32.5184 667.304 32.5184 663.554C75.8137 711.135 197.659 714.26 251.373 714.26C304.563 714.26 441.728 709.108 492.74 663.72C492.725 667.339 492.725 669.867 492.725 669.867C492.725 669.867 478.345 796.882 264.559 793.959C119.382 795.944 64.375 738.033 44.0142 700.642Z" fill="#FFDA71"/>
<path d="M26.763 671.456C27.5095 675.826 28.673 680.114 30.2376 684.262C34.208 695.504 39.6633 706.164 46.4588 715.96C56.7849 730.714 69.4951 743.647 84.0683 754.227C103.779 768.311 125.734 778.953 149 785.702C181.599 795.611 215.965 799.424 249.938 799.92C286.721 800.456 323.648 799.175 359.647 791C385.035 785.597 409.334 775.964 431.528 762.504C447.498 752.664 461.621 740.101 473.255 725.386C481.597 714.741 488.326 702.926 493.226 690.32C495.569 684.498 497.282 678.442 498.336 672.255C498.458 671.463 498.57 670.669 498.661 669.872C498.652 668.296 498.022 666.786 496.907 665.671C495.792 664.556 494.282 663.925 492.705 663.916C491.137 663.952 489.642 664.591 488.533 665.7C487.424 666.81 486.785 668.304 486.749 669.872C486.674 670.533 487.118 667.602 486.831 669.205C486.679 670.059 486.535 670.912 486.361 671.764C485.717 674.848 484.909 677.896 483.942 680.894C483.28 683.004 482.546 685.09 481.74 687.153C481.527 687.704 481.31 688.254 481.09 688.804C480.815 689.484 480.035 691.251 480.842 689.454C480.276 690.727 479.73 692.01 479.139 693.276C476.49 698.95 473.433 704.424 469.991 709.656C469.022 711.135 468.022 712.595 466.991 714.036C466.478 714.755 465.957 715.468 465.427 716.176C465.159 716.536 464.889 716.893 464.618 717.253C463.732 718.437 464.866 716.945 464.37 717.59C461.916 720.695 459.364 723.718 456.676 726.622C453.698 729.828 450.588 732.898 447.347 735.832C445.655 737.362 443.929 738.851 442.17 740.299C441.297 741.024 440.415 741.738 439.525 742.441C439.324 742.602 438.065 743.583 438.569 743.185C439.003 742.85 437.614 743.91 437.385 744.081C418.898 757.675 398.161 767.907 376.124 774.307C344.59 783.939 311.525 787.558 278.648 788.002C242.853 788.499 206.983 787.352 171.942 779.418C147.41 774.286 123.908 765.09 102.409 752.209C97.9797 749.488 93.6779 746.577 89.5035 743.478L88.0913 742.416L87.4932 741.959C86.7809 741.416 88.2154 742.525 87.5155 741.977C86.5476 741.217 85.5847 740.455 84.6341 739.676C82.8489 738.22 81.095 736.725 79.3727 735.192C73.1322 729.647 67.359 723.598 62.1116 717.106C61.8212 716.749 61.5358 716.387 61.2504 716.027C61.1338 715.883 60.1783 714.654 60.754 715.401C61.3298 716.149 60.4215 714.96 60.285 714.779C59.9789 714.373 59.6744 713.967 59.3717 713.56C58.2747 712.071 57.2067 710.564 56.1676 709.041C54.3013 706.296 52.5359 703.487 50.8714 700.615C49.3823 698.039 47.9818 695.415 46.6697 692.745C46.0724 691.529 45.4933 690.304 44.9324 689.072C44.6843 688.506 44.4361 687.938 44.1879 687.372C43.4136 685.61 44.5552 688.302 43.9397 686.796C41.6353 681.055 39.792 675.139 38.4276 669.106C38.3655 668.835 38.3258 668.555 38.2861 668.279C37.8578 666.761 36.8485 665.474 35.4771 664.695C34.1056 663.916 32.4826 663.71 30.9598 664.12C29.4583 664.573 28.1887 665.587 27.414 666.951C26.6392 668.314 26.4186 669.924 26.7978 671.446L26.763 671.456Z" fill="#211715"/>
<path d="M10.9265 623.728C10.9906 632.54 12.8223 641.249 16.3133 649.34C19.8043 657.43 24.8836 664.738 31.2502 670.83C45.064 684.349 63.0919 692.919 81.1348 699.235C101.693 706.111 122.877 710.95 144.381 713.684C165.765 716.697 187.295 718.467 208.864 719.392C242.28 720.811 275.747 720.49 309.13 718.432C352.313 715.771 396.306 710.865 437.775 698.049C468.773 688.466 509.159 671.307 516.858 635.785C517.715 631.825 518.155 627.787 518.173 623.735C518.208 616.069 506.295 616.059 506.261 623.735C506.261 625.639 506.134 627.528 505.943 629.421C505.831 630.543 505.943 629.421 505.98 629.223C505.913 629.679 505.844 630.136 505.764 630.59C505.584 631.643 505.368 632.688 505.117 633.727C504.727 635.34 504.252 636.932 503.695 638.495C503.548 638.909 502.516 641.446 503.141 640.004C502.781 640.83 502.396 641.649 502.002 642.456C501.259 643.945 500.447 645.394 499.565 646.804C499.078 647.58 498.574 648.345 498.051 649.1C497.788 649.477 497.512 649.844 497.247 650.226C497.063 650.475 496.879 650.723 496.693 650.971C497.105 650.443 497.178 650.348 496.912 650.685C494.57 653.622 491.997 656.368 489.218 658.895C487.86 660.136 486.456 661.31 485.026 662.464C484.897 662.568 483.555 663.598 484.619 662.789C484.207 663.102 483.795 663.412 483.378 663.718C482.538 664.335 481.687 664.941 480.824 665.537C477.227 668.001 473.498 670.269 469.656 672.332C461.898 676.525 453.809 680.076 445.471 682.949C405.851 697.115 363.943 702.414 322.517 705.596C289.618 708.079 256.614 708.876 223.633 707.983C182.393 706.921 141.607 703.846 101.838 693.144C83.011 688.077 65.75 681.899 49.7199 670.726C48.9638 670.2 48.2142 669.663 47.4714 669.115C47.0321 668.788 46.5928 668.46 46.1585 668.123C47.1512 668.882 45.7341 667.778 45.6621 667.711C44.0067 666.356 42.3787 664.981 40.8201 663.507C39.4236 662.196 38.0777 660.833 36.7822 659.417C36.0906 658.657 35.4138 657.881 34.752 657.089C34.4244 656.697 34.1043 656.299 33.7841 655.9C32.7293 654.579 34.4716 656.85 33.4739 655.49C31.066 652.252 28.9875 648.78 27.2693 645.129C27.0906 644.749 26.9219 644.367 26.7506 643.982C26.3486 643.069 27.247 645.293 26.6687 643.776C26.3039 642.831 25.944 641.885 25.6189 640.925C24.9623 638.977 24.4138 636.996 23.976 634.988C23.7526 633.963 23.564 632.933 23.3903 631.901C23.3903 631.925 23.1421 630.21 23.2686 631.116C23.3952 632.022 23.1793 630.285 23.1818 630.315C22.9659 628.126 22.8492 625.937 22.8393 623.735C22.807 616.072 10.8943 616.057 10.9265 623.735V623.728Z" fill="#211715"/>
<path d="M169.115 751.055C198.43 755.183 228.011 757.126 257.615 756.87C282.375 756.898 307.119 755.601 331.742 752.986C348.927 751.214 366.007 748.534 382.909 744.955C390.399 743.334 387.23 731.848 379.742 733.469C329.193 744.409 276.347 746.496 224.773 744.312C207.204 743.658 189.683 742.075 172.282 739.569C170.761 739.199 169.155 739.424 167.793 740.197C166.431 740.97 165.416 742.233 164.953 743.729C164.545 745.252 164.753 746.874 165.532 748.245C166.311 749.616 167.598 750.626 169.115 751.055Z" fill="#211715"/>
<path d="M316.908 736.683C316.875 738.207 316.794 739.728 316.637 741.247C316.597 741.624 316.553 742.004 316.506 742.381C316.592 741.743 316.583 741.781 316.478 742.496C316.344 743.24 316.23 743.997 316.074 744.744C315.485 747.64 314.662 750.484 313.612 753.247C313.535 753.453 312.805 755.232 313.245 754.207C312.942 754.907 312.623 755.6 312.289 756.285C311.627 757.654 310.904 758.995 310.12 760.308C309.336 761.62 308.501 762.894 307.616 764.132C307.395 764.442 307.169 764.747 306.941 765.053C307.293 764.603 307.253 764.652 306.819 765.202C306.335 765.79 305.849 766.376 305.347 766.939C304.245 768.059 303.631 769.569 303.637 771.141C303.643 772.712 304.27 774.217 305.382 775.328C306.493 776.439 307.998 777.066 309.569 777.073C311.14 777.079 312.651 776.464 313.771 775.362C323.165 764.626 328.492 750.933 328.82 736.671C328.82 735.091 328.193 733.576 327.076 732.459C325.959 731.342 324.444 730.714 322.864 730.714C321.284 730.714 319.769 731.342 318.652 732.459C317.535 733.576 316.908 735.091 316.908 736.671V736.683Z" fill="#211715"/>
<path d="M348.499 730.672C348.521 733.548 348.462 736.425 348.251 739.294C348.196 740.014 348.134 740.733 348.06 741.451C348.032 741.699 347.737 743.932 347.94 742.545C347.744 743.875 347.516 745.198 347.233 746.516C346.95 747.834 346.628 749.112 346.24 750.388C346.037 751.063 345.818 751.735 345.583 752.4C345.506 752.616 344.707 754.656 345.22 753.435C344.114 756.032 342.693 758.482 340.989 760.732C340.196 762.097 339.975 763.721 340.376 765.248C340.776 766.775 341.765 768.082 343.126 768.882C344.5 769.634 346.11 769.831 347.626 769.434C349.141 769.037 350.447 768.075 351.276 766.745C358.952 756.528 360.508 743.084 360.417 730.677C360.417 729.097 359.789 727.582 358.672 726.465C357.555 725.348 356.04 724.721 354.46 724.721C352.88 724.721 351.365 725.348 350.248 726.465C349.131 727.582 348.504 729.097 348.504 730.677L348.499 730.672Z" fill="#211715"/>
<path d="M480.13 706.514C485.744 652.817 529.404 659.543 522.435 719.233C522.435 734.39 514.927 754.679 501.659 768.391C486.175 784.394 463.596 792.464 447.417 788.801C413.247 789.196 376.578 741.736 422.715 726.778C431.211 722.415 431.65 704.69 445.347 709.331C450.807 697.741 466.691 700.645 474.694 708.09" fill="white"/>
<path d="M49.9234 707.283C44.1829 652.455 -0.388082 659.32 6.7273 720.273C6.7273 735.747 14.3936 756.466 27.9419 770.468C43.7511 786.806 66.8072 795.058 83.3287 791.315C118.221 791.717 155.661 743.257 108.551 727.984C99.8775 723.517 99.4183 705.422 85.4407 710.167C79.8715 698.331 63.6553 701.305 55.4752 708.901" fill="white"/>
<path d="M472.647 780.438C468.191 782.108 463.532 783.175 458.793 783.609C454.586 783.588 450.384 783.33 446.206 782.837C441.15 782.573 436.182 781.402 431.541 779.38C421.724 775.222 413.699 767.719 408.891 758.203C408.412 757.223 408.978 758.54 408.596 757.533C408.365 756.925 408.147 756.312 407.951 755.691C407.601 754.566 407.32 753.421 407.109 752.261C406.918 751.224 407.077 752.944 407.033 751.477C407.015 750.956 406.975 750.435 406.975 749.911C406.975 749.387 407.013 748.874 407.033 748.353C407.09 746.985 406.904 748.601 407.127 747.63C407.363 746.526 407.677 745.439 408.067 744.379C408.316 743.741 408.025 744.496 407.986 744.583C408.1 744.334 408.209 744.086 408.343 743.86C408.715 743.228 409.063 742.59 409.462 741.974C409.614 741.726 409.775 741.505 409.941 741.282C409.869 741.381 409.46 741.885 409.894 741.354C410.271 740.895 410.673 740.455 411.085 740.031C411.933 739.179 412.835 738.383 413.786 737.648C419.059 733.884 426.118 733.079 430.414 728.079C432.358 725.674 434.083 723.099 435.566 720.385C436.507 718.273 437.903 716.395 439.654 714.885C438.909 715.459 440.013 714.702 440.289 714.592C439.127 715.051 441.443 714.414 440.8 714.496C440.264 714.563 442.006 714.54 441.793 714.528C443.104 714.725 444.437 714.734 445.751 714.555C448.09 713.919 450.128 712.475 451.504 710.48C452.249 709.499 453.228 708.72 454.351 708.214C458.779 706.246 465.519 708.311 469.634 711.562C472.947 714.178 476.087 716.228 480.465 714.476C484.843 712.724 485.731 708.864 486.287 704.658C486.748 701.199 487.459 697.778 488.416 694.423C489.103 691.876 490.016 689.397 491.146 687.014C491.665 685.952 492.229 684.91 492.842 683.897C493.177 683.341 493.526 682.798 493.894 682.262C494.092 681.971 495.06 680.711 494.373 681.562C495.039 680.732 495.755 679.944 496.517 679.202C496.85 678.881 497.205 678.584 497.54 678.268C498.532 677.35 497.115 678.482 497.904 677.983C498.694 677.484 499.443 677.062 500.23 676.613C501.242 676.035 499.982 676.678 500.262 676.598C500.759 676.457 501.238 676.295 501.726 676.154C501.957 676.087 503.216 675.866 502.223 676.017C501.23 676.169 502.471 676.017 502.719 676.017C503.144 676.017 503.583 676.047 504.002 676.017C504.913 675.98 502.811 675.66 504.054 676.017C504.836 676.243 505.606 676.424 506.375 676.7C504.826 676.144 506.985 677.107 507.541 677.444C507.727 677.559 508.762 678.328 508.102 677.812C507.442 677.296 508.618 678.286 508.79 678.447C509.498 679.122 510.161 679.842 510.775 680.604C511.197 681.118 510.604 680.39 510.569 680.341C510.758 680.606 510.954 680.872 511.13 681.145C511.406 681.569 511.683 681.994 511.944 682.428C512.586 683.513 513.166 684.633 513.681 685.783C513.299 684.935 513.868 686.243 513.964 686.503C514.178 687.071 514.38 687.642 514.572 688.218C515.046 689.653 515.446 691.109 515.786 692.579C517.145 699.115 517.576 705.811 517.064 712.468C516.904 720.004 515.888 727.498 514.036 734.804C509.445 751.352 498.836 765.587 484.292 774.717C480.605 776.996 476.703 778.908 472.642 780.425C471.142 780.881 469.874 781.896 469.1 783.26C468.326 784.623 468.105 786.232 468.482 787.754C468.914 789.27 469.923 790.556 471.294 791.334C472.665 792.112 474.286 792.32 475.809 791.913C494.826 785.018 510.487 771.111 519.583 753.043C523.814 744.713 526.614 735.731 527.867 726.473C529.017 718.238 529.388 709.914 528.974 701.61C528.23 689.799 525.185 676.097 515.324 668.448C507.05 662.032 496.626 663.288 488.953 669.984C484.795 673.89 481.572 678.683 479.522 684.006C478.177 687.177 477.089 690.452 476.27 693.797C475.829 695.621 475.459 697.46 475.149 699.309C474.992 700.235 474.761 706.214 474.176 706.507L474.615 705.315C474.696 704.007 475.441 703.538 476.849 703.911C477.432 703.841 478.889 703.521 478.998 703.953C478.889 703.521 477.509 702.677 477.186 702.431C475.589 701.133 473.861 700.005 472.029 699.066C468.174 697.096 463.959 695.932 459.64 695.644C455.495 695.363 451.356 696.273 447.71 698.264C446.086 699.191 444.616 700.363 443.352 701.739C442.882 702.177 442.477 702.678 442.148 703.228C441.091 705.616 444.267 702.186 444.166 702.9C442.991 702.707 441.802 702.607 440.612 702.603C433.077 702.905 428.629 708.658 425.128 714.635C423.991 717.025 422.459 719.207 420.596 721.087C421.286 720.489 420.171 721.35 419.983 721.432C419.283 721.735 418.317 721.998 417.546 722.306C415.573 723.071 413.642 723.94 411.76 724.909C399.932 731.146 393.01 742.803 395.778 756.198C398.311 768.458 407.881 778.723 418.002 785.446C423.484 789.116 429.565 791.8 435.971 793.375C439.339 794.113 442.764 794.566 446.208 794.728C450.733 795.315 455.297 795.544 459.858 795.413C465.298 794.904 470.655 793.725 475.806 791.904C477.308 791.451 478.579 790.437 479.353 789.073C480.128 787.709 480.347 786.099 479.966 784.577C479.529 783.068 478.518 781.789 477.15 781.016C475.782 780.242 474.166 780.034 472.647 780.438Z" fill="#211715"/>
<path d="M57.5326 782.89C47.9081 779.225 39.2187 773.467 32.0934 766.031C24.9681 758.596 19.5852 749.669 16.3344 739.897C13.708 731.341 12.279 722.463 12.088 713.515C11.4072 705.623 12.1145 697.673 14.1777 690.025C14.8336 687.365 15.9219 684.832 17.3991 682.525C17.7019 682.028 18.0245 681.532 18.3521 681.036C18.5308 680.77 18.7244 680.507 18.918 680.249C18.7889 680.42 18.1511 681.142 18.8659 680.348C19.6497 679.472 20.4781 678.636 21.3477 677.844C22.0426 677.211 20.4394 678.318 21.7919 677.544C22.189 677.315 22.5886 677.075 22.9807 676.836C23.2016 676.702 23.4473 676.611 23.6732 676.486C24.3656 676.109 22.5563 676.876 23.3009 676.64C23.837 676.472 24.3631 676.295 24.9041 676.144C25.1523 676.074 26.6116 675.878 25.5569 675.993C24.5021 676.107 25.9763 675.993 26.2245 675.993C26.7208 676.008 27.1998 676.04 27.6912 676.065C26.2642 675.99 27.3984 676.032 28.1256 676.221C28.5599 676.335 28.9793 676.487 29.4062 676.621C30.3691 676.923 29.2151 676.536 29.0736 676.467C29.3069 676.581 29.57 676.68 29.7958 676.817C30.2674 677.105 30.7612 677.345 31.2278 677.643C31.6448 677.911 32.7641 678.8 31.7788 677.983C32.6791 678.727 33.5274 679.531 34.3177 680.39C34.5063 680.596 35.6157 681.917 35.3104 681.525C35.0622 681.209 36.1518 682.723 36.395 683.096C39.9412 688.871 42.2603 695.314 43.2076 702.024C44.1705 707.34 44.0042 713.706 50.3279 715.6C55.8301 717.248 58.843 713.178 62.737 710.907C65.8841 709.008 69.5172 708.068 73.1905 708.204C74.728 708.257 76.2174 708.754 77.4787 709.634C78.7401 710.515 79.7194 711.742 80.2984 713.168C80.9666 714.296 81.9862 715.174 83.201 715.667C84.4158 716.16 85.7588 716.241 87.0241 715.898C87.9835 715.456 89.038 715.262 90.0916 715.332C91.9232 715.454 89.4042 715.205 90.4341 715.404C90.7195 715.459 91.8637 715.836 90.722 715.454C92.0571 716.171 93.1444 717.275 93.8417 718.62C96.0188 722.619 98.5584 726.41 101.429 729.945C105.486 734.152 111.574 734.981 116.416 738.075C119.72 739.987 122.325 742.907 123.849 746.407C123.321 745.193 123.956 746.779 124.001 746.94C124.142 747.437 124.301 747.933 124.42 748.43C124.5 748.765 124.564 749.1 124.634 749.437C124.964 751.085 124.589 748.216 124.688 749.894C124.753 750.841 124.765 751.792 124.723 752.74C124.701 753.175 124.666 753.609 124.621 754.043C124.768 752.621 124.462 754.82 124.405 755.081C123.622 758.875 122.005 762.448 119.672 765.542C117.005 769.218 113.852 772.516 110.299 775.345C106.695 778.117 102.762 780.432 98.5894 782.237C94.1389 784.06 89.4087 785.107 84.6043 785.332C80.286 785.429 76.253 786.419 71.8652 786.131C66.9625 785.699 62.1411 784.605 57.5326 782.877C56.7783 782.669 55.9904 782.612 55.2139 782.709C54.4374 782.805 53.6876 783.054 53.0071 783.44C52.3267 783.826 51.729 784.343 51.2483 784.96C50.7675 785.578 50.413 786.284 50.2051 787.038C49.9971 787.792 49.9398 788.58 50.0364 789.357C50.1329 790.133 50.3815 790.883 50.7679 791.563C51.1542 792.244 51.6708 792.842 52.2882 793.322C52.9055 793.803 53.6115 794.158 54.3658 794.366C63.5064 797.665 73.3065 798.717 82.939 797.433C88.6534 797.035 94.31 796.037 99.8154 794.455C110.763 790.652 120.403 783.814 127.612 774.739C134.122 766.403 138.532 755.681 135.851 745.017C134.475 739.869 131.609 735.241 127.614 731.714C125.182 729.539 122.49 727.672 119.6 726.155C116.786 724.678 113.031 723.629 110.666 722.306C111.525 722.787 110.361 722.028 110.05 721.715C109.839 721.504 108.782 720.286 109.378 721.04C108.569 719.959 107.829 718.829 107.162 717.655C105.838 715.285 104.39 712.987 102.823 710.77C100.808 707.767 97.8555 705.515 94.426 704.365C90.9964 703.216 87.2829 703.234 83.8648 704.417L90.593 707.147C85.9693 697.932 75.8981 695.018 66.3059 696.914C61.988 697.798 57.9098 699.598 54.346 702.191C53.6908 702.67 51.7177 703.792 51.271 704.673C51.0079 705.189 50.998 704.198 51.5192 704.514C52.2861 704.975 57.6816 704.077 55.8872 707.273C55.9107 705.85 55.7344 704.429 55.3635 703.054C55.17 701.652 54.959 700.255 54.7083 698.863C52.3332 685.724 46.022 669.416 32.0394 664.954C19.2853 660.883 8.92619 671.158 4.42665 682.028C1.43814 689.795 -0.0613551 698.056 0.00652586 706.378C-0.0728924 711.696 0.594717 716.938 0.805672 722.234C1.03698 727.329 1.81072 732.385 3.11377 737.316C6.3971 750.266 12.7761 762.224 21.7023 772.164C30.6285 782.103 41.835 789.726 54.3584 794.378C55.8814 794.783 57.5026 794.574 58.8729 793.796C60.2432 793.017 61.2529 791.732 61.6847 790.216C62.0713 788.695 61.8552 787.083 61.0814 785.718C60.3076 784.353 59.0361 783.339 57.5326 782.89Z" fill="#211715"/>
<path d="M377.988 226.89C379.345 225.73 380.947 224.893 382.673 224.442C384.4 223.991 386.207 223.937 387.957 224.284C389.649 224.534 391.261 225.165 392.673 226.13C392.382 225.927 395.011 228.612 394.264 227.6C398.346 233.129 398.483 241.222 397.986 247.824C397.342 254.799 395.297 261.572 391.973 267.738C388.642 274.139 382.108 283.622 373.659 282.488C372.138 282.121 370.535 282.347 369.174 283.12C367.814 283.892 366.798 285.153 366.333 286.647C365.925 288.17 366.132 289.792 366.91 291.163C367.689 292.534 368.976 293.544 370.493 293.973C390.705 296.703 402.486 277.067 407.72 260.332C410.19 251.936 410.725 243.089 409.284 234.457C408.917 230.841 407.811 227.34 406.033 224.17C404.255 221.001 401.844 218.232 398.949 216.034C394.46 213.168 389.154 211.854 383.845 212.293C378.537 212.732 373.519 214.901 369.562 218.466C363.854 223.609 372.292 232.012 377.985 226.89H377.988Z" fill="#211715"/>
</svg>
