<svg width="667" height="667" viewBox="0 0 667 667" fill="none" xmlns="http://www.w3.org/2000/svg">
<path d="M56.4904 656.993L155.39 558.093C196.971 585.313 245.695 599.582 295.39 599.093C334.939 598.611 373.99 590.213 410.241 574.395C446.491 558.577 479.207 535.659 506.457 506.993C633.557 380.093 664.857 50.4266 666.257 36.4266C666.71 31.5468 666.082 26.6271 664.417 22.0179C662.752 17.4087 660.091 13.2233 656.624 9.7599C653.143 6.31697 648.955 3.67213 644.35 2.00871C639.746 0.345289 634.835 -0.29693 629.957 0.126571C566.012 6.79375 502.553 17.4928 439.957 32.1599C434.52 33.4374 429.492 36.0604 425.333 39.788C421.175 43.5156 418.019 48.2283 416.157 53.4932L394.524 114.627L376.557 78.4599C372.954 71.2298 366.847 65.5543 359.373 62.4887C351.899 59.423 343.566 59.1759 335.924 61.7932C270.552 80.9689 210.263 114.444 159.424 159.793C40.3904 278.827 52.2237 428.66 108.257 510.96L9.35706 609.86C3.28512 616.147 -0.0746872 624.567 0.00126009 633.307C0.0772074 642.046 3.58284 650.407 9.76311 656.587C15.9434 662.767 24.3038 666.273 33.0437 666.349C41.7836 666.425 50.2037 663.065 56.4904 656.993ZM206.49 206.993C242.364 174.857 284.376 150.319 329.99 134.86L369.724 214.86C372.549 220.81 377.107 225.767 382.8 229.08C388.493 232.394 395.055 233.909 401.624 233.427C408.154 233.022 414.42 230.704 419.642 226.762C424.865 222.82 428.811 217.429 430.99 211.26L472.924 93.1266C521.09 82.5266 564.857 75.6266 594.924 71.5599C582.69 161.36 545.59 373.76 459.49 459.86C366.557 552.793 261.324 541.76 203.89 509.86L356.624 357.127C362.696 350.84 366.055 342.42 365.98 333.68C365.904 324.94 362.398 316.58 356.218 310.399C350.037 304.219 341.677 300.713 332.937 300.637C324.197 300.561 315.777 303.921 309.49 309.993L156.624 462.593C124.624 405.127 113.59 300.093 206.49 206.993Z" fill="white"/>
</svg>
