<svg width="270" height="329" viewBox="0 0 270 329" fill="none" xmlns="http://www.w3.org/2000/svg">
<path d="M137.821 309.696C137.821 311.279 136.539 312.561 134.961 312.561C133.383 312.561 132.101 311.274 132.101 309.696V65.139C132.101 63.5608 133.384 62.2791 134.961 62.2791C136.54 62.2791 137.821 63.566 137.821 65.139V309.696Z" fill="#7DA81D"/>
<path d="M134.956 328.989C141.174 328.989 146.215 323.949 146.215 317.731C146.215 311.513 141.174 306.472 134.956 306.472C128.738 306.472 123.698 311.513 123.698 317.731C123.698 323.949 128.738 328.989 134.956 328.989Z" fill="#7DA81D"/>
<path d="M135.065 0C123.178 5.83463 114.172 32.0786 114.172 44.6091C114.172 57.1397 123.178 67.5312 135.065 69.748V0Z" fill="#7DA81D"/>
<path d="M134.857 0C146.744 5.83463 155.74 32.0786 155.74 44.6091C155.74 57.1397 146.734 67.5312 134.857 69.748V0Z" fill="#469315"/>
<path d="M187.585 78.204C175.044 73.9319 150.123 86.1355 141.257 94.9909C132.413 103.846 131.415 117.566 138.257 127.531L187.585 78.204Z" fill="#7DA81D"/>
<path d="M187.45 78.0689C191.717 90.5994 179.518 115.531 170.674 124.386C161.808 133.247 148.094 134.223 138.123 127.397L187.45 78.0689Z" fill="#469315"/>
<path d="M187.585 136.127C175.044 131.85 150.123 144.048 141.257 152.909C132.413 161.764 131.415 175.484 138.257 185.445L187.585 136.127Z" fill="#7DA81D"/>
<path d="M187.45 135.993C191.717 148.523 179.518 173.449 170.674 182.31C161.808 191.165 148.094 192.147 138.123 185.316L187.45 135.993Z" fill="#469315"/>
<path d="M187.585 194.046C175.044 189.764 150.123 201.967 141.257 210.822C132.413 219.683 131.415 233.397 138.257 243.363L187.585 194.046Z" fill="#7DA81D"/>
<path d="M187.45 193.911C191.717 206.441 179.518 231.373 170.674 240.228C161.808 249.083 148.094 250.07 138.123 243.239L187.45 193.911Z" fill="#469315"/>
<path d="M178.797 260.716C168.498 257.207 147.989 267.24 140.723 274.523C133.435 281.8 132.625 293.085 138.242 301.282L178.797 260.716Z" fill="#7DA81D"/>
<path d="M178.688 260.617C182.202 270.921 172.179 291.42 164.891 298.702C157.603 305.979 146.339 306.789 138.128 301.173L178.688 260.617Z" fill="#469315"/>
<path d="M82.3265 78.204C94.8676 73.9319 119.788 86.1355 128.654 94.9909C137.499 103.846 138.496 117.566 131.655 127.531L82.3265 78.204Z" fill="#7DA81D"/>
<path d="M82.4721 78.0689C78.1947 90.5994 90.3931 115.531 99.2485 124.386C108.114 133.247 121.818 134.223 131.789 127.397L82.4721 78.0689Z" fill="#469315"/>
<path d="M82.3265 136.127C94.8676 131.85 119.788 144.048 128.654 152.909C137.499 161.764 138.496 175.484 131.655 185.445L82.3265 136.127Z" fill="#7DA81D"/>
<path d="M82.4721 135.993C78.1947 148.523 90.3931 173.449 99.2485 182.31C108.114 191.165 121.818 192.147 131.789 185.316L82.4721 135.993Z" fill="#469315"/>
<path d="M82.3265 194.046C94.8676 189.764 119.788 201.967 128.654 210.822C137.499 219.683 138.496 233.397 131.655 243.363L82.3265 194.046Z" fill="#7DA81D"/>
<path d="M82.4721 193.911C78.1947 206.441 90.3931 231.373 99.2485 240.228C108.114 249.083 121.818 250.07 131.789 243.239L82.4721 193.911Z" fill="#469315"/>
<path d="M91.1147 260.716C101.424 257.207 121.922 267.24 129.199 274.523C136.487 281.8 137.297 293.085 131.67 301.282L91.1147 260.716Z" fill="#7DA81D"/>
<path d="M91.234 260.617C87.7196 270.921 97.7329 291.42 105.031 298.702C112.319 305.979 123.572 306.789 131.784 301.173L91.234 260.617Z" fill="#469315"/>
<path d="M35.4703 238.977C35.4808 238.998 35.4914 239.008 35.4914 239.008L35.5224 239.003C41.7669 243.207 50.2954 242.579 55.8131 237.056C61.336 231.533 68.9044 216.075 66.3554 208.175L66.4181 208.112L66.3456 208.097L66.335 208.029L66.2724 208.087C58.362 205.538 42.8983 213.106 37.3807 218.629C36.5345 219.48 35.8439 220.41 35.2317 221.38V202.242C35.3042 202.361 35.351 202.491 35.4288 202.611L35.4077 202.632L35.4597 202.663C35.4808 202.684 35.4808 202.704 35.5013 202.725L35.5224 202.7C41.7669 206.904 50.2954 206.271 55.8131 200.753C61.336 195.23 68.9044 179.762 66.3554 171.866L66.4181 171.804L66.3456 171.788C66.335 171.767 66.335 171.736 66.335 171.716L66.2724 171.778C58.362 169.234 42.8983 176.808 37.3807 182.326C36.5345 183.177 35.8439 184.112 35.2317 185.077V165.991C41.7253 163.936 46.4542 157.935 46.4542 150.751C46.4542 142.944 40.8845 126.65 33.4927 122.866V122.788C33.4716 122.799 33.4512 122.819 33.4512 122.819C33.4097 122.819 33.3886 122.798 33.3681 122.788V122.866C25.9816 126.65 20.3967 142.944 20.3967 150.751C20.3967 157.935 25.1361 163.94 31.635 165.991V185.082C31.0228 184.112 30.3269 183.172 29.4755 182.326C23.9526 176.813 8.4896 169.234 0.589061 171.778L0.526457 171.716C0.521186 171.737 0.526458 171.768 0.521186 171.788L0.448698 171.804L0.511302 171.866C-2.04225 179.762 5.53077 195.23 11.0484 200.753C16.5713 206.271 25.0946 206.904 31.3286 202.694L31.3596 202.725C31.3806 202.704 31.3807 202.678 31.4011 202.658L31.4426 202.632L31.4215 202.611C31.5045 202.492 31.5513 202.362 31.6344 202.243V221.386C31.0222 220.416 30.3263 219.481 29.4749 218.63C23.9519 213.107 8.48894 205.538 0.588403 208.087L0.525799 208.03C0.520527 208.05 0.525799 208.077 0.520527 208.097L0.448039 208.113L0.510643 208.176C-2.04291 216.071 5.53011 231.534 11.0478 237.057C16.5707 242.58 25.094 243.208 31.3385 239.003L31.3596 239.025C31.3701 239.009 31.3806 238.994 31.3905 238.978L31.4426 238.947L31.4215 238.926C31.5045 238.801 31.5513 238.671 31.6344 238.542V257.69C31.0222 256.72 30.3263 255.78 29.4749 254.934C23.9519 249.416 8.48894 241.842 0.588403 244.391L0.525799 244.329C0.520527 244.35 0.525799 244.381 0.520527 244.406L0.448039 244.417L0.510643 244.474C-2.04291 252.37 5.53011 267.838 11.0478 273.356C16.5707 278.878 25.094 279.512 31.3385 275.307L31.3596 275.329C31.3701 275.313 31.3806 275.292 31.3806 275.292L31.4433 275.246L31.4222 275.225C31.5052 275.101 31.552 274.971 31.635 274.846V297.192C31.121 296.367 30.5398 295.572 29.8129 294.856C25.2864 290.314 12.5641 284.085 6.07047 286.183L6.01841 286.136L6.00787 286.193L5.94527 286.204L5.99733 286.256C3.90045 292.744 10.1239 305.466 14.6708 310.009C19.2125 314.551 26.1997 315.064 31.349 311.613L31.3596 311.629C31.3701 311.618 31.3701 311.603 31.3701 311.603C31.3701 311.603 31.4222 311.572 31.4426 311.556L31.4215 311.535C31.5045 311.41 31.5513 311.275 31.6344 311.146V315.148C28.6083 315.947 26.3711 318.672 26.3711 321.948C26.3711 325.841 29.5217 329.002 33.4255 329.002C37.324 329.002 40.4851 325.841 40.4851 321.948C40.4851 318.672 38.2426 315.947 35.2219 315.142V311.156C35.2943 311.275 35.3517 311.41 35.4294 311.535L35.3985 311.556C35.4195 311.572 35.44 311.577 35.44 311.577C35.44 311.577 35.4709 311.619 35.4815 311.629L35.5026 311.613C40.6413 315.07 47.6437 314.551 52.1808 310.009C56.7277 305.468 62.9518 292.74 60.8444 286.251L60.8964 286.204L60.8444 286.194L60.8391 286.137L60.7871 286.183C54.2987 284.086 41.5711 290.32 37.0393 294.857C36.3177 295.573 35.7365 296.372 35.2225 297.198V274.846C35.295 274.965 35.3523 275.101 35.4301 275.22L35.3991 275.246L35.4617 275.276C35.4617 275.276 35.4828 275.313 35.4927 275.329L35.5138 275.307C41.7583 279.512 50.2868 278.878 55.8045 273.356C61.3274 267.843 68.8958 252.37 66.3469 244.474L66.4095 244.417L66.337 244.406L66.3265 244.329L66.2639 244.391C58.3534 241.842 42.8898 249.416 37.3721 254.934C36.526 255.785 35.8354 256.714 35.2232 257.685V238.542C35.2957 238.661 35.353 238.796 35.4308 238.92L35.3998 238.946L35.4703 238.977Z" fill="#469315"/>
<path d="M238.527 238.977C238.538 238.998 238.548 239.008 238.548 239.008L238.579 239.003C244.824 243.207 253.347 242.579 258.87 237.056C264.387 231.533 271.961 216.075 269.407 208.175L269.469 208.112L269.397 208.097L269.392 208.029L269.329 208.087C261.419 205.538 245.955 213.106 240.432 218.629C239.591 219.48 238.895 220.41 238.283 221.38V202.242C238.356 202.361 238.402 202.491 238.485 202.611L238.464 202.632L238.516 202.663C238.537 202.684 238.537 202.704 238.558 202.725L238.579 202.7C244.824 206.904 253.347 206.271 258.87 200.753C264.387 195.23 271.961 179.762 269.407 171.866L269.469 171.804L269.397 171.788C269.392 171.767 269.392 171.736 269.392 171.716L269.329 171.778C261.419 169.234 245.955 176.808 240.432 182.326C239.591 183.177 238.895 184.112 238.283 185.077V165.991C244.782 163.936 249.511 157.935 249.511 150.751C249.511 142.944 243.936 126.65 236.549 122.866V122.788C236.528 122.799 236.508 122.819 236.508 122.819C236.466 122.819 236.445 122.798 236.425 122.788V122.866C229.033 126.65 223.453 142.944 223.453 150.751C223.453 157.935 228.193 163.94 234.686 165.991V185.082C234.074 184.112 233.384 183.172 232.527 182.326C227.009 176.813 211.546 169.234 203.646 171.778L203.583 171.716C203.573 171.737 203.583 171.768 203.573 171.788L203.5 171.804L203.563 171.866C201.014 179.762 208.582 195.23 214.105 200.753C219.623 206.271 228.151 206.904 234.385 202.694L234.416 202.725C234.437 202.704 234.437 202.678 234.458 202.658L234.499 202.632L234.478 202.611C234.556 202.492 234.603 202.362 234.686 202.243V221.386C234.074 220.416 233.383 219.481 232.526 218.63C227.009 213.107 211.545 205.538 203.645 208.087L203.583 208.03C203.572 208.05 203.582 208.077 203.572 208.097L203.499 208.113L203.562 208.176C201.013 216.071 208.582 231.534 214.104 237.057C219.622 242.58 228.151 243.208 234.395 239.003L234.416 239.025C234.427 239.009 234.437 238.994 234.447 238.978L234.499 238.947L234.478 238.926C234.556 238.801 234.603 238.671 234.686 238.542V257.69C234.074 256.72 233.383 255.78 232.526 254.934C227.009 249.416 211.545 241.842 203.645 244.391L203.583 244.329C203.572 244.35 203.582 244.381 203.572 244.406L203.499 244.417L203.562 244.474C201.013 252.37 208.582 267.838 214.104 273.356C219.622 278.878 228.151 279.512 234.395 275.307L234.416 275.329C234.427 275.313 234.437 275.292 234.437 275.292L234.499 275.246L234.478 275.225C234.556 275.101 234.603 274.971 234.686 274.846V297.192C234.172 296.367 233.591 295.572 232.869 294.856C228.337 290.314 215.62 284.085 209.121 286.183L209.069 286.136L209.064 286.193L209.001 286.204L209.053 286.256C206.956 292.744 213.18 305.466 217.727 310.009C222.263 314.551 229.256 315.064 234.405 311.613L234.416 311.629C234.426 311.618 234.426 311.603 234.426 311.603C234.426 311.603 234.478 311.572 234.499 311.556L234.478 311.535C234.555 311.41 234.602 311.275 234.685 311.146V315.148C231.664 315.947 229.422 318.672 229.422 321.948C229.422 325.841 232.572 329.002 236.481 329.002C240.375 329.002 243.536 325.841 243.536 321.948C243.536 318.672 241.299 315.947 238.273 315.142V311.156C238.345 311.275 238.402 311.41 238.485 311.535L238.464 311.556C238.485 311.572 238.506 311.577 238.506 311.577C238.506 311.577 238.537 311.619 238.547 311.629L238.569 311.613C243.707 315.07 250.704 314.551 255.247 310.009C259.794 305.468 266.018 292.74 263.91 286.251L263.962 286.204L263.91 286.194L263.9 286.137L263.848 286.183C257.365 284.086 244.632 290.32 240.105 294.857C239.378 295.573 238.797 296.372 238.283 297.198V274.846C238.356 274.965 238.413 275.101 238.496 275.22L238.465 275.246L238.528 275.276C238.528 275.276 238.549 275.313 238.559 275.329L238.58 275.307C244.824 279.512 253.347 278.878 258.87 273.356C264.388 267.843 271.962 252.37 269.408 244.474L269.47 244.417L269.398 244.406L269.392 244.329L269.33 244.391C261.419 241.842 245.956 249.416 240.433 254.934C239.592 255.785 238.896 256.714 238.284 257.685V238.542C238.356 238.661 238.414 238.796 238.497 238.92L238.466 238.946L238.527 238.977Z" fill="#469315"/>
</svg>
