<svg width="600" height="600" viewBox="0 0 600 600" fill="none" xmlns="http://www.w3.org/2000/svg">
<path fill-rule="evenodd" clip-rule="evenodd" d="M50.0001 200H83.3334V366.667H516.667V200H550V366.667H575C579.602 366.667 583.333 370.398 583.333 375V391.667C583.333 396.268 579.602 400 575 400H25.0001C20.3977 400 16.6667 396.268 16.6667 391.667V375C16.6667 370.398 20.3977 366.667 25.0001 366.667H50.0001V200ZM66.6667 450V566.667H533.333V450H66.6667ZM50.0001 416.667C40.7954 416.667 33.3334 424.128 33.3334 433.333V583.333C33.3334 592.538 40.7954 600 50.0001 600H550C559.205 600 566.667 592.538 566.667 583.333V433.333C566.667 424.128 559.205 416.667 550 416.667H50.0001Z" fill="white"/>
<path fill-rule="evenodd" clip-rule="evenodd" d="M69.8133 33.3333L34.059 131.882C33.5797 133.203 33.3333 134.602 33.3333 136.015V175.85C33.3333 189.32 44.1245 200 57.1428 200C70.1617 200 80.9517 189.32 80.9517 175.85C80.9517 166.645 88.415 159.183 97.6183 159.183C106.823 159.183 114.285 166.645 114.285 175.85C114.285 189.32 125.077 200 138.095 200C151.113 200 161.905 189.32 161.905 175.85C161.905 166.645 169.367 159.183 178.572 159.183C187.777 159.183 195.238 166.645 195.238 175.85C195.238 189.32 206.03 200 219.048 200C232.06 200 242.847 189.33 242.857 175.87C242.865 166.672 250.325 159.217 259.523 159.217C268.723 159.217 276.183 166.672 276.19 175.87C276.202 189.33 286.988 200 300 200C313.018 200 323.81 189.32 323.81 175.85C323.81 166.645 331.272 159.183 340.477 159.183C349.682 159.183 357.143 166.645 357.143 175.85C357.143 189.32 367.933 200 380.952 200C393.965 200 404.752 189.33 404.762 175.87C404.77 166.672 412.228 159.217 421.428 159.217C430.628 159.217 438.088 166.672 438.095 175.87C438.107 189.33 448.893 200 461.905 200C474.923 200 485.715 189.32 485.715 175.85C485.715 166.645 493.177 159.183 502.382 159.183C511.585 159.183 519.048 166.645 519.048 175.85C519.048 189.32 529.838 200 542.857 200C555.875 200 566.667 189.32 566.667 175.85V136.015C566.667 134.602 566.42 133.203 565.942 131.882L530.187 33.3333H69.8133ZM529.607 31.7325C529.605 31.7312 529.607 31.734 529.607 31.7325ZM502.382 216.427C492.055 226.858 477.76 233.333 461.905 233.333C446.048 233.333 431.755 226.858 421.428 216.427C411.103 226.858 396.808 233.333 380.952 233.333C365.097 233.333 350.802 226.858 340.477 216.427C330.15 226.858 315.857 233.333 300 233.333C284.143 233.333 269.85 226.858 259.523 216.427C249.198 226.858 234.903 233.333 219.048 233.333C203.192 233.333 188.897 226.858 178.572 216.427C168.245 226.858 153.952 233.333 138.095 233.333C122.24 233.333 107.945 226.858 97.6183 216.427C87.2933 226.858 72.9983 233.333 57.1428 233.333C25.4525 233.333 0 207.465 0 175.85V136.015C0 130.73 0.921329 125.483 2.72416 120.513L39.0605 20.3598C43.4715 8.20167 55.002 0 68.0317 0H531.968C544.998 0 556.528 8.20167 560.94 20.36L597.277 120.513C599.078 125.483 600 130.73 600 136.015V175.85C600 207.465 574.547 233.333 542.857 233.333C527.002 233.333 512.707 226.858 502.382 216.427Z" fill="white"/>
<path d="M100 325C100 320.398 103.732 316.667 108.333 316.667H158.333C162.935 316.667 166.667 320.398 166.667 325V358.333C166.667 362.935 162.935 366.667 158.333 366.667H108.333C103.732 366.667 100 362.935 100 358.333V325Z" fill="white"/>
<path d="M133.333 341.667C133.333 337.065 137.065 333.333 141.667 333.333H191.667C196.268 333.333 200 337.065 200 341.667V358.333C200 362.935 196.268 366.667 191.667 366.667H141.667C137.065 366.667 133.333 362.935 133.333 358.333V341.667Z" fill="white"/>
<path d="M266.667 341.667C266.667 355.473 255.473 366.667 241.667 366.667C227.86 366.667 216.667 355.473 216.667 341.667C216.667 327.86 227.86 316.667 241.667 316.667C255.473 316.667 266.667 327.86 266.667 341.667Z" fill="white"/>
</svg>
