<svg width="649" height="649" viewBox="0 0 649 649" fill="none" xmlns="http://www.w3.org/2000/svg">
<path d="M627 516.75L489.75 379.25C477.984 368.081 463.109 360.741 447.086 358.197C431.064 355.653 414.647 358.025 400 365L357.5 322.5C385.014 287.594 399.984 244.446 400 200C400 160.444 388.27 121.776 366.294 88.886C344.318 55.9962 313.082 30.3617 276.537 15.2242C239.992 0.0866562 199.778 -3.87401 160.982 3.84303C122.186 11.5601 86.5492 30.6082 58.5787 58.5787C30.6082 86.5492 11.5601 122.186 3.84303 160.982C-3.87401 199.778 0.0866562 239.992 15.2242 276.537C30.3617 313.082 55.9962 344.318 88.886 366.294C121.776 388.27 160.444 400 200 400C244.416 400.055 287.561 385.175 322.5 357.75L364.75 400C357.519 414.607 355.029 431.107 357.629 447.197C360.228 463.287 367.787 478.164 379.25 489.75L516.75 627C531.526 640.842 551.105 648.396 571.349 648.066C591.592 647.736 610.915 639.547 625.231 625.231C639.547 610.915 647.736 591.592 648.066 571.349C648.396 551.105 640.842 531.526 627 516.75ZM50.0001 200C50.0001 170.333 58.7974 141.332 75.2796 116.665C91.7619 91.9972 115.189 72.7713 142.598 61.4182C170.006 50.065 200.166 47.0945 229.264 52.8823C258.361 58.6701 285.088 72.9562 306.066 93.9341C327.044 114.912 341.33 141.639 347.118 170.737C352.906 199.834 349.935 229.994 338.582 257.403C327.229 284.812 308.003 308.238 283.336 324.721C258.668 341.203 229.667 350 200 350C160.218 350 122.065 334.197 93.9341 306.066C65.8036 277.936 50.0001 239.783 50.0001 200ZM591.75 591.75C589.147 594.373 586.051 596.455 582.64 597.875C579.229 599.296 575.57 600.027 571.875 600.027C568.18 600.027 564.521 599.296 561.11 597.875C557.699 596.455 554.603 594.373 552 591.75L414.5 454.25C409.323 448.929 406.426 441.799 406.426 434.375C406.426 426.951 409.323 419.821 414.5 414.5C419.879 409.437 426.988 406.618 434.375 406.618C441.762 406.618 448.871 409.437 454.25 414.5L591.75 552C594.373 554.603 596.455 557.699 597.875 561.11C599.296 564.521 600.027 568.18 600.027 571.875C600.027 575.57 599.296 579.229 597.875 582.64C596.455 586.051 594.373 589.147 591.75 591.75Z" fill="white"/>
</svg>
