<svg width="800" height="530" viewBox="0 0 800 530" fill="none" xmlns="http://www.w3.org/2000/svg">
<path d="M62.0031 318.034C45.0047 301.003 34.5438 277.67 34.5391 251.716C34.5453 225.759 45.0047 202.427 62.0031 185.406C79.0281 168.397 102.366 157.936 128.316 157.936C138.003 157.936 147.294 159.394 156.05 162.106L176.188 168.352L178.341 147.373C181.592 115.688 196.588 87.511 218.963 67.1953C241.358 46.8797 270.919 34.5563 303.53 34.5453C325.763 34.5453 346.522 40.275 364.619 50.3547C382.703 60.4235 398.081 74.8656 409.288 92.2094L438.298 73.4516C424.014 51.3641 404.483 33.0203 381.425 20.1828C358.372 7.32188 331.744 4.17052e-06 303.528 4.17052e-06C262.098 -0.00937083 224.173 15.7875 195.745 41.6203C171.858 63.2938 154.653 92.1875 147.247 124.805C141.058 123.886 134.739 123.392 128.314 123.392C92.9344 123.38 60.75 137.789 37.5797 160.977C14.3906 184.138 -0.0109313 216.328 6.22828e-06 251.714C-0.0109313 287.098 14.3844 319.289 37.5828 342.455C60.7469 365.652 92.9375 380.061 128.317 380.037H129.433V345.505H128.317C102.367 345.492 79.0344 335.031 62.0031 318.034Z" fill="white"/>
<path d="M761.222 303.637C741.034 283.434 714.176 269.822 684.345 266.044C681.745 219.344 661.933 177.109 630.908 146.119C597.63 112.806 551.464 92.1546 500.656 92.1655C453.066 92.153 409.53 110.284 376.869 139.951C348.787 165.436 328.662 199.589 320.511 238.137C312.617 236.825 304.539 236.084 296.292 236.084C255.811 236.073 219.008 252.534 192.495 279.084C165.956 305.591 149.491 342.4 149.497 382.875C149.491 423.362 165.956 460.172 192.495 486.676C219.006 513.216 255.809 529.675 296.292 529.675H667.6C704.102 529.675 737.312 514.831 761.222 490.892C785.155 466.989 800.011 433.778 800 397.27C800.011 360.764 785.155 327.542 761.222 303.637ZM736.797 466.461C719.031 484.198 694.678 495.119 667.6 495.13H296.292C265.241 495.119 237.283 482.595 216.916 462.256C196.578 441.884 184.047 413.931 184.037 382.873C184.047 351.826 196.578 323.864 216.916 303.501C237.284 283.162 265.241 270.626 296.292 270.617C307.886 270.617 319.014 272.366 329.497 275.617L349.623 281.841L351.777 260.873C355.65 223.201 373.489 189.687 400.089 165.525C426.712 141.386 461.88 126.709 500.656 126.709C542.041 126.709 579.348 143.425 606.487 170.548C633.598 197.683 650.322 234.995 650.327 276.38C650.327 277.837 650.266 279.542 650.192 281.537L649.536 300.116L667.884 299.409C694.844 299.498 719.091 310.397 736.795 328.067C754.533 345.837 765.453 370.191 765.459 397.269C765.455 424.348 754.534 448.7 736.797 466.461Z" fill="white"/>
</svg>
